<svg width="60" height="61" viewBox="0 0 60 61" fill="none" xmlns="http://www.w3.org/2000/svg">
<g id="Biology_Icon_InLn (2)" clip-path="url(#clip0_162_200)">
<g id="Layer 2">
<g id="Layer 3">
<path id="Vector" d="M44.4892 24.2298C49.4063 24.2298 53.3924 20.2437 53.3924 15.3266C53.3924 10.4094 49.4063 6.42334 44.4892 6.42334C39.572 6.42334 35.5859 10.4094 35.5859 15.3266C35.5859 20.2437 39.572 24.2298 44.4892 24.2298Z" fill="#8EC37A"/>
<path id="Vector_2" d="M30.0048 48.9173C40.4448 48.9173 48.908 40.454 48.908 30.0141C48.908 19.5741 40.4448 11.1108 30.0048 11.1108C19.5648 11.1108 11.1016 19.5741 11.1016 30.0141C11.1016 40.454 19.5648 48.9173 30.0048 48.9173Z" stroke="#080E14" stroke-width="1.6" stroke-linecap="round" stroke-linejoin="round"/>
<path id="Vector_3" d="M23.1361 43.9069C21.2823 42.9783 19.6336 41.6871 18.2877 40.11C16.9418 38.5328 15.926 36.7016 15.3004 34.7248C14.6749 32.748 14.4523 30.6658 14.6458 28.6015C14.8393 26.5371 15.4451 24.5326 16.4272 22.7065C17.4093 20.8805 18.7478 19.27 20.3634 17.9705C21.979 16.671 23.839 15.7088 25.8331 15.141C27.8272 14.5731 29.915 14.4111 31.9729 14.6646C34.0307 14.918 36.0168 15.5818 37.8136 16.6165" stroke="#080E14" stroke-width="1.6" stroke-linecap="round" stroke-linejoin="round"/>
<path id="Vector_4" d="M45.5123 29.7749V30.0168C45.513 33.4572 44.3691 36.8001 42.2608 39.5187C40.1524 42.2374 37.1995 44.1773 33.8672 45.033" stroke="#080E14" stroke-width="1.6" stroke-linecap="round" stroke-linejoin="round"/>
<path id="Vector_5" d="M25.929 19.1133C25.8053 19.376 25.7622 19.6694 25.8053 19.9565C25.8484 20.2436 25.9756 20.5115 26.1709 20.7262C26.7571 21.1864 27.4915 21.4159 28.2354 21.3714L33.2677 21.6133C33.5034 21.6483 33.7441 21.6147 33.9612 21.5166C34.1161 21.4151 34.2321 21.2644 34.2907 21.0887C34.3492 20.9131 34.3468 20.7229 34.2838 20.5488C34.1638 20.2033 33.9451 19.9004 33.6548 19.6779C32.5594 18.737 31.1915 18.1718 29.7516 18.065C28.7032 18.0327 26.4935 18.0327 25.929 19.1133Z" stroke="#080E14" stroke-width="1.6" stroke-linecap="round" stroke-linejoin="round"/>
<path id="Vector_6" d="M30.1521 34.0659C29.3748 34.5238 28.717 35.1595 28.2328 35.9207C27.9988 36.3016 27.875 36.7399 27.875 37.1868C27.875 37.6338 27.9988 38.0721 28.2328 38.453C28.7155 39.0149 29.3863 39.3819 30.1199 39.4852C31.6969 39.8149 33.3312 39.7457 34.8747 39.2837C36.4182 38.8218 37.8219 37.9819 38.9586 36.8401C39.6053 36.1821 40.0767 35.3725 40.3295 34.4852C40.4786 34.0279 40.5017 33.5389 40.3965 33.0696C40.2912 32.6003 40.0615 32.168 39.7315 31.8181C39.4014 31.4683 38.9832 31.2138 38.5208 31.0814C38.0584 30.9491 37.5689 30.9437 37.1037 31.0659C34.6351 31.6701 32.2853 32.6842 30.1521 34.0659Z" stroke="#080E14" stroke-width="1.6" stroke-linecap="round" stroke-linejoin="round"/>
<path id="Vector_7" d="M19.5993 30.3871C19.5384 30.841 19.6095 31.3029 19.804 31.7176C19.9985 32.1323 20.3081 32.4823 20.696 32.7258C21.0525 32.8447 21.4363 32.8545 21.7984 32.754C22.1605 32.6534 22.4843 32.447 22.7283 32.1613C23.2094 31.5808 23.5613 30.9045 23.7606 30.1774C24.0398 29.4569 24.1873 28.692 24.196 27.9193C24.196 26.4839 22.7606 24.9193 21.2928 25.9193C20.7258 26.5127 20.2837 27.2139 19.9928 27.9814C19.7018 28.7489 19.568 29.5669 19.5993 30.3871Z" stroke="#080E14" stroke-width="1.6" stroke-linecap="round" stroke-linejoin="round"/>
<path id="Vector_8" d="M30.001 59.0504C31.3995 59.0504 32.5333 57.9166 32.5333 56.5181C32.5333 55.1196 31.3995 53.9858 30.001 53.9858C28.6025 53.9858 27.4688 55.1196 27.4688 56.5181C27.4688 57.9166 28.6025 59.0504 30.001 59.0504Z" stroke="#080E14" stroke-width="1.6" stroke-linecap="round" stroke-linejoin="round"/>
<path id="Vector_9" d="M56.501 32.816C57.8995 32.816 59.0333 31.6823 59.0333 30.2837C59.0333 28.8852 57.8995 27.7515 56.501 27.7515C55.1025 27.7515 53.9688 28.8852 53.9688 30.2837C53.9688 31.6823 55.1025 32.816 56.501 32.816Z" stroke="#080E14" stroke-width="1.6" stroke-linecap="round" stroke-linejoin="round"/>
<path id="Vector_10" d="M49.936 53.975C51.8423 53.975 53.3876 52.4297 53.3876 50.5234C53.3876 48.6171 51.8423 47.0718 49.936 47.0718C48.0297 47.0718 46.4844 48.6171 46.4844 50.5234C46.4844 52.4297 48.0297 53.975 49.936 53.975Z" stroke="#080E14" stroke-width="1.6" stroke-linecap="round" stroke-linejoin="round"/>
<path id="Vector_11" d="M50.9279 11.7792C52.6917 11.7792 54.1215 10.3494 54.1215 8.58564C54.1215 6.82189 52.6917 5.39209 50.9279 5.39209C49.1642 5.39209 47.7344 6.82189 47.7344 8.58564C47.7344 10.3494 49.1642 11.7792 50.9279 11.7792Z" stroke="#080E14" stroke-width="1.6" stroke-linecap="round" stroke-linejoin="round"/>
<path id="Vector_12" d="M7.67465 11.0383C9.51857 11.0383 11.0134 9.54347 11.0134 7.69955C11.0134 5.85563 9.51857 4.36084 7.67465 4.36084C5.83073 4.36084 4.33594 5.85563 4.33594 7.69955C4.33594 9.54347 5.83073 11.0383 7.67465 11.0383Z" stroke="#080E14" stroke-width="1.6" stroke-linecap="round" stroke-linejoin="round"/>
<path id="Vector_13" d="M8.57031 55.439C10.5033 55.439 12.0703 53.872 12.0703 51.939C12.0703 50.006 10.5033 48.439 8.57031 48.439C6.63732 48.439 5.07031 50.006 5.07031 51.939C5.07031 53.872 6.63732 55.439 8.57031 55.439Z" stroke="#080E14" stroke-width="1.6" stroke-linecap="round" stroke-linejoin="round"/>
<path id="Vector_14" d="M30.0557 6.05036C31.4542 6.05036 32.588 4.91663 32.588 3.5181C32.588 2.11957 31.4542 0.98584 30.0557 0.98584C28.6572 0.98584 27.5234 2.11957 27.5234 3.5181C27.5234 4.91663 28.6572 6.05036 30.0557 6.05036Z" stroke="#080E14" stroke-width="1.6" stroke-linecap="round" stroke-linejoin="round"/>
<path id="Vector_15" d="M3.50101 32.816C4.89954 32.816 6.03327 31.6823 6.03327 30.2837C6.03327 28.8852 4.89954 27.7515 3.50101 27.7515C2.10248 27.7515 0.96875 28.8852 0.96875 30.2837C0.96875 31.6823 2.10248 32.816 3.50101 32.816Z" stroke="#080E14" stroke-width="1.6" stroke-linecap="round" stroke-linejoin="round"/>
<path id="Vector_16" d="M30 53.9795V48.9312" stroke="#080E14" stroke-width="1.6" stroke-linecap="round" stroke-linejoin="round"/>
<path id="Vector_17" d="M53.9468 30.2905H48.8984" stroke="#080E14" stroke-width="1.6" stroke-linecap="round" stroke-linejoin="round"/>
<path id="Vector_18" d="M8.14844 30.2905H11.1001" stroke="#080E14" stroke-width="1.6" stroke-linecap="round" stroke-linejoin="round"/>
<path id="Vector_19" d="M30.0703 6.07178V11.1202" stroke="#080E14" stroke-width="1.6" stroke-linecap="round" stroke-linejoin="round"/>
<path id="Vector_20" d="M16.6323 43.3921L13.6484 46.5211" stroke="#080E14" stroke-width="1.6" stroke-linecap="round" stroke-linejoin="round"/>
<path id="Vector_21" d="M47.6376 47.9672L45.2344 45.564" stroke="#080E14" stroke-width="1.6" stroke-linecap="round" stroke-linejoin="round"/>
<path id="Vector_22" d="M47.1603 12.9624L43.5312 16.8011" stroke="#080E14" stroke-width="1.6" stroke-linecap="round" stroke-linejoin="round"/>
<path id="Vector_23" d="M10.0703 10.0249L16.7155 16.5733" stroke="#080E14" stroke-width="1.6" stroke-linecap="round" stroke-linejoin="round"/>
</g>
</g>
</g>
<defs>
<clipPath id="clip0_162_200">
<rect width="60" height="60" fill="white" transform="translate(0 0.00146484)"/>
</clipPath>
</defs>
</svg>
