<svg width="60" height="61" viewBox="0 0 60 61" fill="none" xmlns="http://www.w3.org/2000/svg">
<g clip-path="url(#clip0_162_308)">
<path d="M50.6083 55.1102H17.5224C16.9958 55.0995 16.481 54.9492 16.0293 54.6742C15.5775 54.3992 15.2045 54.0091 14.9472 53.5425C14.6899 53.076 14.5574 52.5492 14.5627 52.0146C14.5679 51.4799 14.7109 50.956 14.9773 50.4948L21.7642 38.4397C21.9565 38.1016 22.2337 37.8215 22.5676 37.6278C22.9014 37.4342 23.28 37.334 23.6645 37.3375H44.5171C44.901 37.3375 45.2782 37.4392 45.6115 37.6325C45.9447 37.8258 46.2225 38.104 46.4174 38.4397L53.2043 50.4948C53.4674 50.9606 53.606 51.4881 53.6064 52.0251C53.6069 52.562 53.4692 53.0898 53.2069 53.5561C52.9446 54.0224 52.5669 54.4111 52.1111 54.6837C51.6553 54.9563 51.1373 55.1033 50.6083 55.1102Z" fill="#D85A6E"/>
<path d="M49.1508 50.112L51.1698 53.5563C51.5023 54.1033 51.682 54.7317 51.6899 55.3743C51.6978 56.017 51.5336 56.6497 51.2148 57.205C50.8959 57.7603 50.4345 58.2172 49.8797 58.527C49.3249 58.8368 48.6976 58.9878 48.0649 58.9639H10.1773C9.56287 58.9657 8.95885 58.8031 8.42609 58.4924C7.89334 58.1818 7.45066 57.7341 7.14269 57.1945C6.83471 56.6549 6.67232 56.0424 6.67188 55.4188C6.67143 54.7952 6.83295 54.1825 7.14016 53.6424L21.9016 27.6895C22.5019 26.643 22.8235 25.456 22.8347 24.2451V12.4828C22.8347 11.8434 23.085 11.2301 23.5305 10.7779C23.976 10.3258 24.5801 10.0718 25.2101 10.0718H33.0829C33.7145 10.0718 34.3204 10.3252 34.7686 10.7769C35.2167 11.2286 35.4708 11.8418 35.4753 12.4828V24.1074C35.4865 25.3182 35.8081 26.5053 36.4084 27.5517L44.6714 42.1039" stroke="#080E14" stroke-width="1.6" stroke-linecap="round" stroke-linejoin="round"/>
<path d="M36.1156 52.8446C38.1771 52.8446 39.8483 51.1483 39.8483 49.0558C39.8483 46.9634 38.1771 45.2671 36.1156 45.2671C34.054 45.2671 32.3828 46.9634 32.3828 49.0558C32.3828 51.1483 34.054 52.8446 36.1156 52.8446Z" stroke="#080E14" stroke-width="1.6" stroke-linecap="round" stroke-linejoin="round"/>
<path d="M26.3317 38.1495C27.7748 38.1495 28.9446 36.9621 28.9446 35.4973C28.9446 34.0326 27.7748 32.8452 26.3317 32.8452C24.8886 32.8452 23.7188 34.0326 23.7188 35.4973C23.7188 36.9621 24.8886 38.1495 26.3317 38.1495Z" stroke="#080E14" stroke-width="1.6" stroke-linecap="round" stroke-linejoin="round"/>
<path d="M24.5699 46.0996C25.3851 46.0996 26.046 45.4288 26.046 44.6013C26.046 43.7738 25.3851 43.103 24.5699 43.103C23.7546 43.103 23.0938 43.7738 23.0938 44.6013C23.0938 45.4288 23.7546 46.0996 24.5699 46.0996Z" fill="#080E14"/>
<path d="M30.266 17.8938C31.5779 17.8938 32.6414 16.8144 32.6414 15.4828C32.6414 14.1512 31.5779 13.0718 30.266 13.0718C28.9541 13.0718 27.8906 14.1512 27.8906 15.4828C27.8906 16.8144 28.9541 17.8938 30.266 17.8938Z" stroke="#080E14" stroke-width="1.6" stroke-linecap="round" stroke-linejoin="round"/>
<path d="M25.9523 4.82146C26.9831 4.82146 27.8187 3.97332 27.8187 2.92709C27.8187 1.88086 26.9831 1.03271 25.9523 1.03271C24.9215 1.03271 24.0859 1.88086 24.0859 2.92709C24.0859 3.97332 24.9215 4.82146 25.9523 4.82146Z" stroke="#080E14" stroke-width="1.6" stroke-linecap="round" stroke-linejoin="round"/>
</g>
<defs>
<clipPath id="clip0_162_308">
<rect width="60" height="60" fill="white" transform="translate(0 0.00146484)"/>
</clipPath>
</defs>
</svg>
