<svg width="25" height="25" viewBox="0 0 25 25" fill="none" xmlns="http://www.w3.org/2000/svg">
<mask id="mask0_162_123" style="mask-type:alpha" maskUnits="userSpaceOnUse" x="0" y="0" width="25" height="25">
<rect x="0.837708" y="0.00146484" width="24" height="24" fill="#D9D9D9"/>
</mask>
<g mask="url(#mask0_162_123)">
<path d="M12.8377 15.413C12.7172 15.413 12.605 15.3937 12.5012 15.3553C12.3973 15.3168 12.2986 15.2508 12.205 15.1572L9.09544 12.0476C8.94672 11.8989 8.87333 11.7249 8.87526 11.5255C8.87718 11.3262 8.95057 11.1489 9.09544 10.9938C9.25057 10.8387 9.42877 10.7585 9.63004 10.7534C9.83132 10.7483 10.0095 10.8233 10.1647 10.9784L12.0877 12.9015V5.25146C12.0877 5.03865 12.1595 4.86045 12.3031 4.71687C12.4467 4.57327 12.6249 4.50146 12.8377 4.50146C13.0505 4.50146 13.2287 4.57327 13.3723 4.71687C13.5159 4.86045 13.5877 5.03865 13.5877 5.25146V12.9015L15.5108 10.9784C15.6595 10.8297 15.8361 10.7563 16.0406 10.7582C16.245 10.7601 16.4249 10.8387 16.58 10.9938C16.7249 11.1489 16.7998 11.3246 16.805 11.5207C16.8101 11.7169 16.7351 11.8925 16.58 12.0476L13.4704 15.1572C13.3768 15.2508 13.2781 15.3168 13.1742 15.3553C13.0704 15.3937 12.9582 15.413 12.8377 15.413ZM7.14544 19.5014C6.6403 19.5014 6.21274 19.3264 5.86274 18.9764C5.51274 18.6264 5.33774 18.1988 5.33774 17.6937V15.7322C5.33774 15.5194 5.40954 15.3412 5.55314 15.1976C5.69672 15.054 5.87492 14.9822 6.08774 14.9822C6.30055 14.9822 6.47875 15.054 6.62234 15.1976C6.76592 15.3412 6.83771 15.5194 6.83771 15.7322V17.6937C6.83771 17.7706 6.86976 17.8412 6.93386 17.9053C6.99798 17.9694 7.0685 18.0014 7.14544 18.0014H18.53C18.6069 18.0014 18.6774 17.9694 18.7416 17.9053C18.8057 17.8412 18.8377 17.7706 18.8377 17.6937V15.7322C18.8377 15.5194 18.9095 15.3412 19.0531 15.1976C19.1967 15.054 19.3749 14.9822 19.5877 14.9822C19.8005 14.9822 19.9787 15.054 20.1223 15.1976C20.2659 15.3412 20.3377 15.5194 20.3377 15.7322V17.6937C20.3377 18.1988 20.1627 18.6264 19.8127 18.9764C19.4627 19.3264 19.0351 19.5014 18.53 19.5014H7.14544Z" fill="#1C1B1F"/>
</g>
</svg>
