<svg width="24" height="24" viewBox="0 0 24 24" fill="none" xmlns="http://www.w3.org/2000/svg">
<mask id="mask0_0_3580" style="mask-type:alpha" maskUnits="userSpaceOnUse" x="0" y="0" width="24" height="24">
<rect width="24" height="24" fill="#D9D9D9"/>
</mask>
<g mask="url(#mask0_0_3580)">
<path d="M11.4981 15C11.3966 15 11.3021 14.984 11.2146 14.9521C11.1272 14.9201 11.044 14.8653 10.9652 14.7876L7.17922 11.0556C7.06258 10.9406 7.00291 10.7961 7.00021 10.622C6.9975 10.4479 7.05717 10.3007 7.17922 10.1804C7.30126 10.0601 7.44921 10 7.62308 10C7.79695 10 7.94491 10.0601 8.06694 10.1804L11.4981 13.5628L14.9293 10.1804C15.046 10.0655 15.1926 10.0067 15.3691 10.004C15.5457 10.0013 15.695 10.0601 15.817 10.1804C15.9391 10.3007 16.0001 10.4466 16.0001 10.618C16.0001 10.7894 15.9391 10.9353 15.817 11.0556L12.0311 14.7876C11.9523 14.8653 11.8691 14.9201 11.7816 14.9521C11.6942 14.984 11.5997 15 11.4981 15Z" fill="white" fill-opacity="0.8"/>
</g>
</svg>
