<svg width="24" height="25" viewBox="0 0 24 25" fill="none" xmlns="http://www.w3.org/2000/svg">
<mask id="mask0_0_2824" style="mask-type:alpha" maskUnits="userSpaceOnUse" x="0" y="0" width="24" height="25">
<rect y="0.00146484" width="24" height="24" fill="#D9D9D9"/>
</mask>
<g mask="url(#mask0_0_2824)">
<path d="M11.498 15.0015C11.3965 15.0015 11.302 14.9855 11.2145 14.9536C11.127 14.9216 11.0439 14.8668 10.965 14.7891L7.1791 11.057C7.06245 10.942 7.00278 10.7975 7.00009 10.6235C6.99738 10.4494 7.05705 10.3022 7.1791 10.1819C7.30113 10.0616 7.44909 10.0015 7.62296 10.0015C7.79683 10.0015 7.94479 10.0616 8.06682 10.1819L11.498 13.5643L14.9292 10.1819C15.0458 10.0669 15.1924 10.0081 15.369 10.0054C15.5456 10.0028 15.6949 10.0616 15.8169 10.1819C15.939 10.3022 16 10.4481 16 10.6195C16 10.7909 15.939 10.9367 15.8169 11.057L12.031 14.7891C11.9521 14.8668 11.869 14.9216 11.7815 14.9536C11.694 14.9855 11.5995 15.0015 11.498 15.0015Z" fill="#080E14"/>
</g>
</svg>
