<svg width="32" height="33" viewBox="0 0 32 33" fill="none" xmlns="http://www.w3.org/2000/svg">
<g id="Frame 1000006571">
<rect y="0.00146484" width="32" height="32" rx="8" fill="white"/>
<g id="expand_more">
<path id="expand_more_2" d="M19.9948 16.6682C19.9948 16.8035 19.9735 16.9295 19.9309 17.0462C19.8883 17.1628 19.8152 17.2737 19.7116 17.3788L14.7355 22.4267C14.5822 22.5823 14.3895 22.6618 14.1575 22.6654C13.9254 22.669 13.7291 22.5895 13.5687 22.4267C13.4083 22.264 13.3281 22.0667 13.3281 21.8349C13.3281 21.6031 13.4083 21.4058 13.5687 21.2431L18.0785 16.6682L13.5687 12.0933C13.4154 11.9378 13.337 11.7423 13.3334 11.5068C13.3299 11.2714 13.4083 11.0723 13.5687 10.9096C13.7291 10.7469 13.9236 10.6655 14.1521 10.6655C14.3807 10.6655 14.5751 10.7469 14.7355 10.9096L19.7116 15.9576C19.8152 16.0627 19.8883 16.1735 19.9309 16.2902C19.9735 16.4068 19.9948 16.5328 19.9948 16.6682Z" fill="#007BFF"/>
</g>
</g>
</svg>
