<svg width="32" height="33" viewBox="0 0 32 33" fill="none" xmlns="http://www.w3.org/2000/svg">
<g id="Frame 1000006570" opacity="0.5">
<rect width="32" height="32" rx="8" transform="matrix(-1 0 0 1 32 0.00146484)" fill="white"/>
<g id="expand_more">
<path id="expand_more_2" d="M12.0052 16.6682C12.0052 16.8035 12.0265 16.9295 12.0691 17.0462C12.1117 17.1628 12.1848 17.2737 12.2884 17.3788L17.2645 22.4267C17.4178 22.5823 17.6105 22.6618 17.8425 22.6654C18.0746 22.669 18.2709 22.5895 18.4313 22.4267C18.5917 22.264 18.6719 22.0667 18.6719 21.8349C18.6719 21.6031 18.5917 21.4058 18.4313 21.2431L13.9215 16.6682L18.4313 12.0933C18.5846 11.9378 18.663 11.7423 18.6666 11.5068C18.6701 11.2714 18.5917 11.0723 18.4313 10.9096C18.2709 10.7469 18.0764 10.6655 17.8479 10.6655C17.6193 10.6655 17.4249 10.7469 17.2645 10.9096L12.2884 15.9576C12.1848 16.0627 12.1117 16.1735 12.0691 16.2902C12.0265 16.4068 12.0052 16.5328 12.0052 16.6682Z" fill="#007BFF"/>
</g>
</g>
</svg>
