<svg width="32" height="33" viewBox="0 0 32 33" fill="none" xmlns="http://www.w3.org/2000/svg">
<g opacity="0.5">
<rect width="32" height="32" rx="8" transform="matrix(-1 0 0 1 32 0.00146484)" fill="#D4E9FF"/>
<path d="M12.0013 16.6682C12.0013 16.8035 12.0226 16.9295 12.0652 17.0462C12.1078 17.1628 12.1809 17.2737 12.2845 17.3788L17.2606 22.4267C17.4139 22.5823 17.6065 22.6618 17.8386 22.6654C18.0707 22.669 18.267 22.5895 18.4274 22.4267C18.5878 22.264 18.668 22.0667 18.668 21.8349C18.668 21.6031 18.5878 21.4058 18.4274 21.2431L13.9176 16.6682L18.4274 12.0933C18.5807 11.9378 18.6591 11.7423 18.6627 11.5068C18.6662 11.2714 18.5878 11.0723 18.4274 10.9096C18.267 10.7469 18.0725 10.6655 17.844 10.6655C17.6154 10.6655 17.421 10.7469 17.2606 10.9096L12.2845 15.9576C12.1809 16.0627 12.1078 16.1735 12.0652 16.2902C12.0226 16.4068 12.0013 16.5328 12.0013 16.6682Z" fill="#007BFF"/>
</g>
</svg>
