<svg width="32" height="33" viewBox="0 0 32 33" fill="none" xmlns="http://www.w3.org/2000/svg">
<g id="Frame 1000006435">
<rect y="0.00146484" width="32" height="32" rx="8" fill="#D4E9FF"/>
<g id="expand_more">
<path id="expand_more_2" d="M19.9987 16.6682C19.9987 16.8035 19.9774 16.9295 19.9348 17.0462C19.8922 17.1628 19.8191 17.2737 19.7155 17.3788L14.7394 22.4267C14.5861 22.5823 14.3935 22.6618 14.1614 22.6654C13.9293 22.669 13.733 22.5895 13.5726 22.4267C13.4122 22.264 13.332 22.0667 13.332 21.8349C13.332 21.6031 13.4122 21.4058 13.5726 21.2431L18.0824 16.6682L13.5726 12.0933C13.4193 11.9378 13.3409 11.7423 13.3373 11.5068C13.3338 11.2714 13.4122 11.0723 13.5726 10.9096C13.733 10.7469 13.9275 10.6655 14.156 10.6655C14.3846 10.6655 14.579 10.7469 14.7394 10.9096L19.7155 15.9576C19.8191 16.0627 19.8922 16.1735 19.9348 16.2902C19.9774 16.4068 19.9987 16.5328 19.9987 16.6682Z" fill="#007BFF"/>
</g>
</g>
</svg>
