<svg width="239" height="54" viewBox="0 0 239 54" fill="none" xmlns="http://www.w3.org/2000/svg">
<g filter="url(#filter0_d_0_3596)">
<circle cx="27" cy="23" r="20" fill="#FCDE5A"/>
</g>
<mask id="mask0_0_3596" style="mask-type:alpha" maskUnits="userSpaceOnUse" x="18" y="14" width="18" height="18">
<rect x="18.5545" y="14.5547" width="17.1429" height="17.1429" fill="#D9D9D9"/>
</mask>
<g mask="url(#mask0_0_3596)">
<path fill-rule="evenodd" clip-rule="evenodd" d="M34.2991 28.652C33.8601 29.986 32.1402 30.6513 30.9114 30.5404C29.2331 30.3887 27.407 29.4986 26.0208 28.5182C23.9832 27.0771 22.0746 24.8478 20.9624 22.4823C20.1764 20.8107 20 18.7556 21.1691 17.2319C21.6014 16.6687 22.0689 16.368 22.7715 16.3329C23.7462 16.2855 23.8827 16.8431 24.2174 17.7115C24.4668 18.361 24.7996 19.0235 24.9854 19.6967C25.3334 20.9529 24.1169 21.0054 23.9633 22.0323C23.8675 22.6798 24.6526 23.5483 25.0072 24.01C25.7022 24.9145 26.5375 25.6946 27.48 26.2882C28.0195 26.6285 28.8909 27.2419 29.5091 26.9034C30.461 26.382 30.3709 24.7769 31.7021 25.3201C32.3914 25.6008 33.0589 26.0058 33.717 26.3604C34.7343 26.9075 34.6869 27.4744 34.2991 28.652C34.5893 27.7721 34.009 29.5319 34.2991 28.652Z" fill="#017BFF"/>
</g>
<path d="M64.3063 7.688C65.2397 7.688 65.9957 7.97267 66.5743 8.542C67.153 9.102 67.4423 9.914 67.4423 10.978V15.5H66.1823V11.16C66.1823 10.3947 65.991 9.81133 65.6083 9.41C65.2257 8.99933 64.703 8.794 64.0403 8.794C63.3683 8.794 62.8317 9.004 62.4303 9.424C62.0383 9.844 61.8423 10.4553 61.8423 11.258V15.5H60.5683V7.828H61.8423V8.92C62.0943 8.528 62.435 8.22467 62.8643 8.01C63.303 7.79533 63.7837 7.688 64.3063 7.688ZM76.5234 11.37C76.5234 11.6127 76.5094 11.8693 76.4814 12.14H70.3494C70.3961 12.896 70.6528 13.4887 71.1194 13.918C71.5954 14.338 72.1694 14.548 72.8414 14.548C73.3921 14.548 73.8494 14.422 74.2134 14.17C74.5868 13.9087 74.8481 13.5633 74.9974 13.134H76.3694C76.1641 13.8713 75.7534 14.4733 75.1374 14.94C74.5214 15.3973 73.7561 15.626 72.8414 15.626C72.1134 15.626 71.4601 15.4627 70.8814 15.136C70.3121 14.8093 69.8641 14.3473 69.5374 13.75C69.2108 13.1433 69.0474 12.4433 69.0474 11.65C69.0474 10.8567 69.2061 10.1613 69.5234 9.564C69.8408 8.96667 70.2841 8.50933 70.8534 8.192C71.4321 7.86533 72.0948 7.702 72.8414 7.702C73.5694 7.702 74.2134 7.86067 74.7734 8.178C75.3334 8.49533 75.7628 8.934 76.0614 9.494C76.3694 10.0447 76.5234 10.67 76.5234 11.37ZM75.2074 11.104C75.2074 10.6187 75.1001 10.2033 74.8854 9.858C74.6708 9.50333 74.3768 9.23733 74.0034 9.06C73.6394 8.87333 73.2334 8.78 72.7854 8.78C72.1414 8.78 71.5908 8.98533 71.1334 9.396C70.6854 9.80667 70.4288 10.376 70.3634 11.104H75.2074ZM85.2051 11.37C85.2051 11.6127 85.1911 11.8693 85.1631 12.14H79.0311C79.0777 12.896 79.3344 13.4887 79.8011 13.918C80.2771 14.338 80.8511 14.548 81.5231 14.548C82.0737 14.548 82.5311 14.422 82.8951 14.17C83.2684 13.9087 83.5297 13.5633 83.6791 13.134H85.0511C84.8457 13.8713 84.4351 14.4733 83.8191 14.94C83.2031 15.3973 82.4377 15.626 81.5231 15.626C80.7951 15.626 80.1417 15.4627 79.5631 15.136C78.9937 14.8093 78.5457 14.3473 78.2191 13.75C77.8924 13.1433 77.7291 12.4433 77.7291 11.65C77.7291 10.8567 77.8877 10.1613 78.2051 9.564C78.5224 8.96667 78.9657 8.50933 79.5351 8.192C80.1137 7.86533 80.7764 7.702 81.5231 7.702C82.2511 7.702 82.8951 7.86067 83.4551 8.178C84.0151 8.49533 84.4444 8.934 84.7431 9.494C85.0511 10.0447 85.2051 10.67 85.2051 11.37ZM83.8891 11.104C83.8891 10.6187 83.7817 10.2033 83.5671 9.858C83.3524 9.50333 83.0584 9.23733 82.6851 9.06C82.3211 8.87333 81.9151 8.78 81.4671 8.78C80.8231 8.78 80.2724 8.98533 79.8151 9.396C79.3671 9.80667 79.1104 10.376 79.0451 11.104H83.8891ZM86.4107 11.636C86.4107 10.852 86.5694 10.166 86.8867 9.578C87.204 8.98067 87.638 8.51867 88.1887 8.192C88.7487 7.86533 89.374 7.702 90.0647 7.702C90.662 7.702 91.2174 7.842 91.7307 8.122C92.244 8.39267 92.636 8.752 92.9067 9.2V5.14H94.1947V15.5H92.9067V14.058C92.6547 14.5153 92.2814 14.8933 91.7867 15.192C91.292 15.4813 90.7134 15.626 90.0507 15.626C89.3694 15.626 88.7487 15.458 88.1887 15.122C87.638 14.786 87.204 14.3147 86.8867 13.708C86.5694 13.1013 86.4107 12.4107 86.4107 11.636ZM92.9067 11.65C92.9067 11.0713 92.79 10.5673 92.5567 10.138C92.3234 9.70867 92.006 9.382 91.6047 9.158C91.2127 8.92467 90.7787 8.808 90.3027 8.808C89.8267 8.808 89.3927 8.92 89.0007 9.144C88.6087 9.368 88.296 9.69467 88.0627 10.124C87.8294 10.5533 87.7127 11.0573 87.7127 11.636C87.7127 12.224 87.8294 12.7373 88.0627 13.176C88.296 13.6053 88.6087 13.9367 89.0007 14.17C89.3927 14.394 89.8267 14.506 90.3027 14.506C90.7787 14.506 91.2127 14.394 91.6047 14.17C92.006 13.9367 92.3234 13.6053 92.5567 13.176C92.79 12.7373 92.9067 12.2287 92.9067 11.65ZM103.888 7.688C104.467 7.688 104.989 7.814 105.456 8.066C105.923 8.30867 106.287 8.67733 106.548 9.172C106.819 9.66667 106.954 10.2687 106.954 10.978V15.5H105.694V11.16C105.694 10.3947 105.503 9.81133 105.12 9.41C104.737 8.99933 104.215 8.794 103.552 8.794C102.88 8.794 102.343 9.004 101.942 9.424C101.55 9.844 101.354 10.4553 101.354 11.258V15.5H100.08V5.14H101.354V8.92C101.606 8.528 101.951 8.22467 102.39 8.01C102.838 7.79533 103.337 7.688 103.888 7.688ZM116.035 11.37C116.035 11.6127 116.021 11.8693 115.993 12.14H109.861C109.908 12.896 110.164 13.4887 110.631 13.918C111.107 14.338 111.681 14.548 112.353 14.548C112.904 14.548 113.361 14.422 113.725 14.17C114.098 13.9087 114.36 13.5633 114.509 13.134H115.881C115.676 13.8713 115.265 14.4733 114.649 14.94C114.033 15.3973 113.268 15.626 112.353 15.626C111.625 15.626 110.972 15.4627 110.393 15.136C109.824 14.8093 109.376 14.3473 109.049 13.75C108.722 13.1433 108.559 12.4433 108.559 11.65C108.559 10.8567 108.718 10.1613 109.035 9.564C109.352 8.96667 109.796 8.50933 110.365 8.192C110.944 7.86533 111.606 7.702 112.353 7.702C113.081 7.702 113.725 7.86067 114.285 8.178C114.845 8.49533 115.274 8.934 115.573 9.494C115.881 10.0447 116.035 10.67 116.035 11.37ZM114.719 11.104C114.719 10.6187 114.612 10.2033 114.397 9.858C114.182 9.50333 113.888 9.23733 113.515 9.06C113.151 8.87333 112.745 8.78 112.297 8.78C111.653 8.78 111.102 8.98533 110.645 9.396C110.197 9.80667 109.94 10.376 109.875 11.104H114.719ZM118.991 5.14V15.5H117.717V5.14H118.991ZM122.436 9.242C122.688 8.80333 123.061 8.43933 123.556 8.15C124.06 7.85133 124.643 7.702 125.306 7.702C125.987 7.702 126.603 7.86533 127.154 8.192C127.714 8.51867 128.153 8.98067 128.47 9.578C128.787 10.166 128.946 10.852 128.946 11.636C128.946 12.4107 128.787 13.1013 128.47 13.708C128.153 14.3147 127.714 14.786 127.154 15.122C126.603 15.458 125.987 15.626 125.306 15.626C124.653 15.626 124.074 15.4813 123.57 15.192C123.075 14.8933 122.697 14.5247 122.436 14.086V19.14H121.162V7.828H122.436V9.242ZM127.644 11.636C127.644 11.0573 127.527 10.5533 127.294 10.124C127.061 9.69467 126.743 9.368 126.342 9.144C125.95 8.92 125.516 8.808 125.04 8.808C124.573 8.808 124.139 8.92467 123.738 9.158C123.346 9.382 123.029 9.71333 122.786 10.152C122.553 10.5813 122.436 11.0807 122.436 11.65C122.436 12.2287 122.553 12.7373 122.786 13.176C123.029 13.6053 123.346 13.9367 123.738 14.17C124.139 14.394 124.573 14.506 125.04 14.506C125.516 14.506 125.95 14.394 126.342 14.17C126.743 13.9367 127.061 13.6053 127.294 13.176C127.527 12.7373 127.644 12.224 127.644 11.636ZM133.115 5.616C134.039 5.616 134.786 5.87733 135.355 6.4C135.924 6.92267 136.209 7.62267 136.209 8.5C136.209 9.48 135.906 10.208 135.299 10.684C134.692 11.1507 133.871 11.384 132.835 11.384L132.793 12.714H131.687L131.631 10.502H132.037C132.961 10.502 133.684 10.362 134.207 10.082C134.73 9.802 134.991 9.27467 134.991 8.5C134.991 7.94 134.823 7.49667 134.487 7.17C134.151 6.84333 133.698 6.68 133.129 6.68C132.55 6.68 132.093 6.83867 131.757 7.156C131.43 7.464 131.267 7.88867 131.267 8.43H130.063C130.063 7.87 130.189 7.38 130.441 6.96C130.693 6.53067 131.048 6.19933 131.505 5.966C131.972 5.73267 132.508 5.616 133.115 5.616ZM132.233 15.584C131.99 15.584 131.785 15.5 131.617 15.332C131.449 15.164 131.365 14.9587 131.365 14.716C131.365 14.4733 131.449 14.268 131.617 14.1C131.785 13.932 131.99 13.848 132.233 13.848C132.466 13.848 132.662 13.932 132.821 14.1C132.989 14.268 133.073 14.4733 133.073 14.716C133.073 14.9587 132.989 15.164 132.821 15.332C132.662 15.5 132.466 15.584 132.233 15.584ZM143.251 8.878V13.4C143.251 13.7733 143.331 14.0393 143.489 14.198C143.648 14.3473 143.923 14.422 144.315 14.422H145.253V15.5H144.105C143.396 15.5 142.864 15.3367 142.509 15.01C142.155 14.6833 141.977 14.1467 141.977 13.4V8.878H140.983V7.828H141.977V5.896H143.251V7.828H145.253V8.878H143.251ZM146.321 11.636C146.321 10.852 146.48 10.166 146.797 9.578C147.114 8.98067 147.548 8.51867 148.099 8.192C148.659 7.86533 149.28 7.702 149.961 7.702C150.633 7.702 151.216 7.84667 151.711 8.136C152.206 8.42533 152.574 8.78933 152.817 9.228V7.828H154.105V15.5H152.817V14.072C152.565 14.52 152.187 14.8933 151.683 15.192C151.188 15.4813 150.61 15.626 149.947 15.626C149.266 15.626 148.65 15.458 148.099 15.122C147.548 14.786 147.114 14.3147 146.797 13.708C146.48 13.1013 146.321 12.4107 146.321 11.636ZM152.817 11.65C152.817 11.0713 152.7 10.5673 152.467 10.138C152.234 9.70867 151.916 9.382 151.515 9.158C151.123 8.92467 150.689 8.808 150.213 8.808C149.737 8.808 149.303 8.92 148.911 9.144C148.519 9.368 148.206 9.69467 147.973 10.124C147.74 10.5533 147.623 11.0573 147.623 11.636C147.623 12.224 147.74 12.7373 147.973 13.176C148.206 13.6053 148.519 13.9367 148.911 14.17C149.303 14.394 149.737 14.506 150.213 14.506C150.689 14.506 151.123 14.394 151.515 14.17C151.916 13.9367 152.234 13.6053 152.467 13.176C152.7 12.7373 152.817 12.2287 152.817 11.65ZM157.532 5.14V15.5H156.258V5.14H157.532ZM163.987 15.5L160.977 12.112V15.5H159.703V5.14H160.977V11.23L163.931 7.828H165.709L162.097 11.65L165.723 15.5H163.987ZM172.195 8.878V13.4C172.195 13.7733 172.274 14.0393 172.433 14.198C172.591 14.3473 172.867 14.422 173.259 14.422H174.197V15.5H173.049C172.339 15.5 171.807 15.3367 171.453 15.01C171.098 14.6833 170.921 14.1467 170.921 13.4V8.878H169.927V7.828H170.921V5.896H172.195V7.828H174.197V8.878H172.195ZM179.086 15.626C178.368 15.626 177.714 15.4627 177.126 15.136C176.548 14.8093 176.09 14.3473 175.754 13.75C175.428 13.1433 175.264 12.4433 175.264 11.65C175.264 10.866 175.432 10.1753 175.768 9.578C176.114 8.97133 176.58 8.50933 177.168 8.192C177.756 7.86533 178.414 7.702 179.142 7.702C179.87 7.702 180.528 7.86533 181.116 8.192C181.704 8.50933 182.166 8.96667 182.502 9.564C182.848 10.1613 183.02 10.8567 183.02 11.65C183.02 12.4433 182.843 13.1433 182.488 13.75C182.143 14.3473 181.672 14.8093 181.074 15.136C180.477 15.4627 179.814 15.626 179.086 15.626ZM179.086 14.506C179.544 14.506 179.973 14.3987 180.374 14.184C180.776 13.9693 181.098 13.6473 181.34 13.218C181.592 12.7887 181.718 12.266 181.718 11.65C181.718 11.034 181.597 10.5113 181.354 10.082C181.112 9.65267 180.794 9.33533 180.402 9.13C180.01 8.91533 179.586 8.808 179.128 8.808C178.662 8.808 178.232 8.91533 177.84 9.13C177.458 9.33533 177.15 9.65267 176.916 10.082C176.683 10.5113 176.566 11.034 176.566 11.65C176.566 12.2753 176.678 12.8027 176.902 13.232C177.136 13.6613 177.444 13.9833 177.826 14.198C178.209 14.4033 178.629 14.506 179.086 14.506ZM195.428 11.37C195.428 11.6127 195.414 11.8693 195.386 12.14H189.254C189.3 12.896 189.557 13.4887 190.024 13.918C190.5 14.338 191.074 14.548 191.746 14.548C192.296 14.548 192.754 14.422 193.118 14.17C193.491 13.9087 193.752 13.5633 193.902 13.134H195.274C195.068 13.8713 194.658 14.4733 194.042 14.94C193.426 15.3973 192.66 15.626 191.746 15.626C191.018 15.626 190.364 15.4627 189.786 15.136C189.216 14.8093 188.768 14.3473 188.442 13.75C188.115 13.1433 187.952 12.4433 187.952 11.65C187.952 10.8567 188.11 10.1613 188.428 9.564C188.745 8.96667 189.188 8.50933 189.758 8.192C190.336 7.86533 190.999 7.702 191.746 7.702C192.474 7.702 193.118 7.86067 193.678 8.178C194.238 8.49533 194.667 8.934 194.966 9.494C195.274 10.0447 195.428 10.67 195.428 11.37ZM194.112 11.104C194.112 10.6187 194.004 10.2033 193.79 9.858C193.575 9.50333 193.281 9.23733 192.908 9.06C192.544 8.87333 192.138 8.78 191.69 8.78C191.046 8.78 190.495 8.98533 190.038 9.396C189.59 9.80667 189.333 10.376 189.268 11.104H194.112ZM201.113 15.5L199.293 12.644L197.543 15.5H196.213L198.691 11.692L196.213 7.828H197.655L199.475 10.67L201.211 7.828H202.541L200.077 11.622L202.555 15.5H201.113ZM205.083 9.242C205.335 8.80333 205.708 8.43933 206.203 8.15C206.707 7.85133 207.29 7.702 207.953 7.702C208.634 7.702 209.25 7.86533 209.801 8.192C210.361 8.51867 210.799 8.98067 211.117 9.578C211.434 10.166 211.593 10.852 211.593 11.636C211.593 12.4107 211.434 13.1013 211.117 13.708C210.799 14.3147 210.361 14.786 209.801 15.122C209.25 15.458 208.634 15.626 207.953 15.626C207.299 15.626 206.721 15.4813 206.217 15.192C205.722 14.8933 205.344 14.5247 205.083 14.086V19.14H203.809V7.828H205.083V9.242ZM210.291 11.636C210.291 11.0573 210.174 10.5533 209.941 10.124C209.707 9.69467 209.39 9.368 208.989 9.144C208.597 8.92 208.163 8.808 207.687 8.808C207.22 8.808 206.786 8.92467 206.385 9.158C205.993 9.382 205.675 9.71333 205.433 10.152C205.199 10.5813 205.083 11.0807 205.083 11.65C205.083 12.2287 205.199 12.7373 205.433 13.176C205.675 13.6053 205.993 13.9367 206.385 14.17C206.786 14.394 207.22 14.506 207.687 14.506C208.163 14.506 208.597 14.394 208.989 14.17C209.39 13.9367 209.707 13.6053 209.941 13.176C210.174 12.7373 210.291 12.224 210.291 11.636ZM220.27 11.37C220.27 11.6127 220.256 11.8693 220.228 12.14H214.096C214.142 12.896 214.399 13.4887 214.866 13.918C215.342 14.338 215.916 14.548 216.588 14.548C217.138 14.548 217.596 14.422 217.96 14.17C218.333 13.9087 218.594 13.5633 218.744 13.134H220.116C219.91 13.8713 219.5 14.4733 218.884 14.94C218.268 15.3973 217.502 15.626 216.588 15.626C215.86 15.626 215.206 15.4627 214.628 15.136C214.058 14.8093 213.61 14.3473 213.284 13.75C212.957 13.1433 212.794 12.4433 212.794 11.65C212.794 10.8567 212.952 10.1613 213.27 9.564C213.587 8.96667 214.03 8.50933 214.6 8.192C215.178 7.86533 215.841 7.702 216.588 7.702C217.316 7.702 217.96 7.86067 218.52 8.178C219.08 8.49533 219.509 8.934 219.808 9.494C220.116 10.0447 220.27 10.67 220.27 11.37ZM218.954 11.104C218.954 10.6187 218.846 10.2033 218.632 9.858C218.417 9.50333 218.123 9.23733 217.75 9.06C217.386 8.87333 216.98 8.78 216.532 8.78C215.888 8.78 215.337 8.98533 214.88 9.396C214.432 9.80667 214.175 10.376 214.11 11.104H218.954ZM223.225 9.074C223.449 8.63533 223.767 8.29467 224.177 8.052C224.597 7.80933 225.106 7.688 225.703 7.688V9.004H225.367C223.939 9.004 223.225 9.77867 223.225 11.328V15.5H221.951V7.828H223.225V9.074ZM228.728 8.878V13.4C228.728 13.7733 228.807 14.0393 228.966 14.198C229.124 14.3473 229.4 14.422 229.792 14.422H230.73V15.5H229.582C228.872 15.5 228.34 15.3367 227.986 15.01C227.631 14.6833 227.454 14.1467 227.454 13.4V8.878H226.46V7.828H227.454V5.896H228.728V7.828H230.73V8.878H228.728ZM234.989 15.626C234.401 15.626 233.874 15.528 233.407 15.332C232.941 15.1267 232.572 14.8467 232.301 14.492C232.031 14.128 231.881 13.7127 231.853 13.246H233.169C233.207 13.6287 233.384 13.9413 233.701 14.184C234.028 14.4267 234.453 14.548 234.975 14.548C235.461 14.548 235.843 14.4407 236.123 14.226C236.403 14.0113 236.543 13.7407 236.543 13.414C236.543 13.078 236.394 12.8307 236.095 12.672C235.797 12.504 235.335 12.3407 234.709 12.182C234.14 12.0327 233.673 11.8833 233.309 11.734C232.955 11.5753 232.647 11.3467 232.385 11.048C232.133 10.74 232.007 10.3387 232.007 9.844C232.007 9.452 232.124 9.09267 232.357 8.766C232.591 8.43933 232.922 8.18267 233.351 7.996C233.781 7.8 234.271 7.702 234.821 7.702C235.671 7.702 236.357 7.91667 236.879 8.346C237.402 8.77533 237.682 9.36333 237.719 10.11H236.445C236.417 9.70867 236.254 9.38667 235.955 9.144C235.666 8.90133 235.274 8.78 234.779 8.78C234.322 8.78 233.958 8.878 233.687 9.074C233.417 9.27 233.281 9.52667 233.281 9.844C233.281 10.096 233.361 10.306 233.519 10.474C233.687 10.6327 233.893 10.7633 234.135 10.866C234.387 10.9593 234.733 11.0667 235.171 11.188C235.722 11.3373 236.17 11.4867 236.515 11.636C236.861 11.776 237.155 11.9907 237.397 12.28C237.649 12.5693 237.78 12.9473 237.789 13.414C237.789 13.834 237.673 14.212 237.439 14.548C237.206 14.884 236.875 15.15 236.445 15.346C236.025 15.5327 235.54 15.626 234.989 15.626Z" fill="#FCDE5A"/>
<path d="M59.9044 29.9V27.836H63.7604V39.5H61.4564V29.9H59.9044ZM67.9252 33.324C66.8586 32.7693 66.3252 31.9107 66.3252 30.748C66.3252 30.172 66.4692 29.6493 66.7572 29.18C67.0559 28.7 67.4986 28.3213 68.0852 28.044C68.6826 27.756 69.4079 27.612 70.2612 27.612C71.1146 27.612 71.8346 27.756 72.4212 28.044C73.0186 28.3213 73.4612 28.7 73.7492 29.18C74.0479 29.6493 74.1972 30.172 74.1972 30.748C74.1972 31.3347 74.0532 31.852 73.7652 32.3C73.4772 32.7373 73.0932 33.0787 72.6132 33.324C73.1999 33.58 73.6586 33.9533 73.9892 34.444C74.3199 34.9347 74.4852 35.516 74.4852 36.188C74.4852 36.9133 74.2986 37.548 73.9252 38.092C73.5626 38.6253 73.0612 39.036 72.4212 39.324C71.7812 39.612 71.0612 39.756 70.2612 39.756C69.4612 39.756 68.7412 39.612 68.1012 39.324C67.4719 39.036 66.9706 38.6253 66.5972 38.092C66.2346 37.548 66.0532 36.9133 66.0532 36.188C66.0532 35.516 66.2186 34.9347 66.5492 34.444C66.8799 33.9427 67.3386 33.5693 67.9252 33.324ZM72.0212 31.068C72.0212 30.5453 71.8612 30.14 71.5412 29.852C71.2319 29.564 70.8052 29.42 70.2612 29.42C69.7279 29.42 69.3012 29.564 68.9812 29.852C68.6719 30.14 68.5172 30.5507 68.5172 31.084C68.5172 31.564 68.6772 31.948 68.9972 32.236C69.3279 32.524 69.7492 32.668 70.2612 32.668C70.7732 32.668 71.1946 32.524 71.5252 32.236C71.8559 31.9373 72.0212 31.548 72.0212 31.068ZM70.2612 34.3C69.6532 34.3 69.1572 34.4547 68.7732 34.764C68.3999 35.0733 68.2132 35.516 68.2132 36.092C68.2132 36.6253 68.3946 37.0627 68.7572 37.404C69.1306 37.7347 69.6319 37.9 70.2612 37.9C70.8906 37.9 71.3866 37.7293 71.7492 37.388C72.1119 37.0467 72.2932 36.6147 72.2932 36.092C72.2932 35.5267 72.1066 35.0893 71.7332 34.78C71.3599 34.46 70.8692 34.3 70.2612 34.3ZM76.2545 33.516C76.2545 31.6707 76.5852 30.2253 77.2465 29.18C77.9185 28.1347 79.0278 27.612 80.5745 27.612C82.1212 27.612 83.2252 28.1347 83.8865 29.18C84.5585 30.2253 84.8945 31.6707 84.8945 33.516C84.8945 35.372 84.5585 36.828 83.8865 37.884C83.2252 38.94 82.1212 39.468 80.5745 39.468C79.0278 39.468 77.9185 38.94 77.2465 37.884C76.5852 36.828 76.2545 35.372 76.2545 33.516ZM82.6865 33.516C82.6865 32.7267 82.6332 32.0653 82.5265 31.532C82.4305 30.988 82.2278 30.5453 81.9185 30.204C81.6198 29.8627 81.1718 29.692 80.5745 29.692C79.9772 29.692 79.5238 29.8627 79.2145 30.204C78.9158 30.5453 78.7132 30.988 78.6065 31.532C78.5105 32.0653 78.4625 32.7267 78.4625 33.516C78.4625 34.3267 78.5105 35.0093 78.6065 35.564C78.7025 36.108 78.9052 36.5507 79.2145 36.892C79.5238 37.2227 79.9772 37.388 80.5745 37.388C81.1718 37.388 81.6252 37.2227 81.9345 36.892C82.2438 36.5507 82.4465 36.108 82.5425 35.564C82.6385 35.0093 82.6865 34.3267 82.6865 33.516ZM86.5982 33.516C86.5982 31.6707 86.9289 30.2253 87.5902 29.18C88.2622 28.1347 89.3716 27.612 90.9182 27.612C92.4649 27.612 93.5689 28.1347 94.2302 29.18C94.9022 30.2253 95.2382 31.6707 95.2382 33.516C95.2382 35.372 94.9022 36.828 94.2302 37.884C93.5689 38.94 92.4649 39.468 90.9182 39.468C89.3716 39.468 88.2622 38.94 87.5902 37.884C86.9289 36.828 86.5982 35.372 86.5982 33.516ZM93.0302 33.516C93.0302 32.7267 92.9769 32.0653 92.8702 31.532C92.7742 30.988 92.5716 30.5453 92.2622 30.204C91.9636 29.8627 91.5156 29.692 90.9182 29.692C90.3209 29.692 89.8676 29.8627 89.5582 30.204C89.2596 30.5453 89.0569 30.988 88.9502 31.532C88.8542 32.0653 88.8062 32.7267 88.8062 33.516C88.8062 34.3267 88.8542 35.0093 88.9502 35.564C89.0462 36.108 89.2489 36.5507 89.5582 36.892C89.8676 37.2227 90.3209 37.388 90.9182 37.388C91.5156 37.388 91.9689 37.2227 92.2782 36.892C92.5876 36.5507 92.7902 36.108 92.8862 35.564C92.9822 35.0093 93.0302 34.3267 93.0302 33.516ZM104.014 32.844V34.732H97.23V32.844H104.014ZM106.174 37.228V35.468L111.406 27.98H114.014V35.276H115.422V37.228H114.014V39.5H111.774V37.228H106.174ZM111.918 30.38L108.638 35.276H111.918V30.38ZM116.576 29.9V27.836H120.432V39.5H118.128V29.9H116.576ZM125.237 36.22C125.322 36.6893 125.514 37.052 125.813 37.308C126.122 37.5533 126.533 37.676 127.045 37.676C127.706 37.676 128.186 37.404 128.485 36.86C128.784 36.3053 128.933 35.3773 128.933 34.076C128.688 34.4173 128.341 34.684 127.893 34.876C127.456 35.068 126.981 35.164 126.469 35.164C125.786 35.164 125.168 35.0253 124.613 34.748C124.069 34.46 123.637 34.0387 123.317 33.484C122.997 32.9187 122.837 32.236 122.837 31.436C122.837 30.252 123.189 29.3133 123.893 28.62C124.597 27.916 125.557 27.564 126.773 27.564C128.288 27.564 129.354 28.0493 129.973 29.02C130.602 29.9907 130.917 31.452 130.917 33.404C130.917 34.7907 130.794 35.9267 130.549 36.812C130.314 37.6973 129.904 38.3693 129.317 38.828C128.741 39.2867 127.952 39.516 126.949 39.516C126.16 39.516 125.488 39.3667 124.933 39.068C124.378 38.7587 123.952 38.3587 123.653 37.868C123.365 37.3667 123.2 36.8173 123.157 36.22H125.237ZM126.933 33.34C127.488 33.34 127.925 33.1693 128.245 32.828C128.565 32.4867 128.725 32.028 128.725 31.452C128.725 30.8227 128.554 30.3373 128.213 29.996C127.882 29.644 127.429 29.468 126.853 29.468C126.277 29.468 125.818 29.6493 125.477 30.012C125.146 30.364 124.981 30.8333 124.981 31.42C124.981 31.9853 125.141 32.4493 125.461 32.812C125.792 33.164 126.282 33.34 126.933 33.34ZM139.733 32.844V34.732H132.949V32.844H139.733ZM141.893 37.228V35.468L147.125 27.98H149.733V35.276H151.141V37.228H149.733V39.5H147.493V37.228H141.893ZM147.637 30.38L144.357 35.276H147.637V30.38ZM153.271 36.972C154.295 36.1187 155.111 35.4093 155.719 34.844C156.327 34.268 156.834 33.6707 157.239 33.052C157.644 32.4333 157.847 31.8253 157.847 31.228C157.847 30.684 157.719 30.2573 157.463 29.948C157.207 29.6387 156.812 29.484 156.279 29.484C155.746 29.484 155.335 29.6653 155.047 30.028C154.759 30.38 154.61 30.8653 154.599 31.484H152.423C152.466 30.204 152.844 29.2333 153.559 28.572C154.284 27.9107 155.202 27.58 156.311 27.58C157.527 27.58 158.46 27.9053 159.111 28.556C159.762 29.196 160.087 30.044 160.087 31.1C160.087 31.932 159.863 32.7267 159.415 33.484C158.967 34.2413 158.455 34.9027 157.879 35.468C157.303 36.0227 156.551 36.6947 155.623 37.484H160.343V39.34H152.439V37.676L153.271 36.972ZM169.178 29.532L164.922 39.5H162.65L166.938 29.788H161.466V27.868H169.178V29.532Z" fill="#FCDE5A"/>
<defs>
<filter id="filter0_d_0_3596" x="-4.76837e-07" y="0" width="54" height="54" filterUnits="userSpaceOnUse" color-interpolation-filters="sRGB">
<feFlood flood-opacity="0" result="BackgroundImageFix"/>
<feColorMatrix in="SourceAlpha" type="matrix" values="0 0 0 0 0 0 0 0 0 0 0 0 0 0 0 0 0 0 127 0" result="hardAlpha"/>
<feOffset dy="4"/>
<feGaussianBlur stdDeviation="3.5"/>
<feComposite in2="hardAlpha" operator="out"/>
<feColorMatrix type="matrix" values="0 0 0 0 0 0 0 0 0 0.482353 0 0 0 0 1 0 0 0 0.12 0"/>
<feBlend mode="normal" in2="BackgroundImageFix" result="effect1_dropShadow_0_3596"/>
<feBlend mode="normal" in="SourceGraphic" in2="effect1_dropShadow_0_3596" result="shape"/>
</filter>
</defs>
</svg>
