<svg width="227" height="64" viewBox="0 0 227 64" fill="none" xmlns="http://www.w3.org/2000/svg">
<path d="M1.69489 26.2519C1.69489 26.1581 1.72451 26.0766 1.7813 26.0075C1.83809 25.9408 1.92452 25.9062 2.04056 25.9062H4.34674C4.42575 25.9062 4.5097 25.9383 4.59859 26.0001C4.68748 26.0618 4.73192 26.1458 4.73192 26.2519V37.2174C4.73192 37.447 4.60353 37.563 4.34674 37.563H2.04056C1.81094 37.563 1.69489 37.447 1.69489 37.2174V26.2519Z" fill="white"/>
<path d="M6.35878 27.7371C6.42545 27.6803 6.49952 27.6432 6.5736 27.6284C6.65014 27.6136 6.72174 27.6062 6.78841 27.6062H7.9736C8.06742 27.6062 8.1489 27.6235 8.21804 27.6581C8.28717 27.6926 8.34397 27.7371 8.39088 27.7963C8.43779 27.8531 8.47483 27.9198 8.50446 27.9914C8.53162 28.0655 8.56125 28.1395 8.58594 28.2186L8.75137 28.9074C8.83039 28.7445 8.95631 28.5791 9.13162 28.4062C9.30693 28.2334 9.52421 28.0778 9.78347 27.9371C10.0427 27.7963 10.3415 27.6803 10.6822 27.5889C11.023 27.4976 11.4008 27.4531 11.8205 27.4531C12.418 27.4531 12.9489 27.5692 13.418 27.7988C13.8872 28.0284 14.2847 28.342 14.6106 28.7371C14.9366 29.1346 15.1859 29.5963 15.3563 30.1272C15.5267 30.6581 15.6106 31.2235 15.6106 31.826V36.9667C15.6106 37.1667 15.5687 37.3149 15.4822 37.4186C15.3958 37.5198 15.2575 37.5716 15.0699 37.5716H13.2575C13.0329 37.5716 12.8773 37.5346 12.7933 37.4581C12.7094 37.3815 12.6674 37.2334 12.6674 37.0136V31.905C12.6674 31.6803 12.6156 31.4655 12.5143 31.2655C12.4131 31.063 12.2773 30.8877 12.1094 30.7321C11.9415 30.5791 11.7514 30.4556 11.5415 30.3667C11.3291 30.2778 11.1143 30.2334 10.8946 30.2334C10.7069 30.2334 10.5143 30.2753 10.3168 30.3593C10.1217 30.4433 9.93903 30.5593 9.77606 30.7099C9.61063 30.8581 9.47236 31.0334 9.36125 31.2358C9.25014 31.4383 9.18594 31.6556 9.16866 31.8926V36.9939C9.16866 37.0828 9.15137 37.1716 9.1168 37.2605C9.08224 37.3494 9.03285 37.4161 8.96372 37.4655C8.89705 37.5074 8.83038 37.5371 8.77112 37.5519C8.71187 37.5667 8.64026 37.5741 8.56372 37.5741H6.79088C6.56619 37.5741 6.40322 37.5198 6.30446 37.4087C6.20569 37.3 6.15631 37.1519 6.15631 36.9692V28.1914C6.15631 28.0926 6.17853 28.0013 6.22298 27.9173C6.26742 27.8334 6.32915 27.7692 6.40816 27.7223L6.36125 27.7445L6.35878 27.7371Z" fill="white"/>
<path d="M17.6644 27.7355C17.6644 27.2491 17.7682 26.7923 17.978 26.3627C18.1879 25.9331 18.4669 25.5578 18.8175 25.2368C19.1682 24.9158 19.5706 24.6615 20.0274 24.4763C20.4817 24.2911 20.9583 24.1973 21.4546 24.1973H21.6126C21.7904 24.1973 21.9286 24.2516 22.0249 24.3578C22.1212 24.4639 22.1706 24.6121 22.1706 24.8022V26.301C22.1706 26.496 22.1188 26.6565 22.0175 26.7849C21.9163 26.9133 21.7805 26.9775 21.6126 26.9775H21.4546C21.3459 26.9775 21.2398 26.9973 21.141 27.0368C21.0422 27.0763 20.9533 27.1306 20.8743 27.1973C20.7953 27.2664 20.7336 27.3454 20.6867 27.4368C20.6398 27.5281 20.6175 27.6294 20.6175 27.738V28.6417H21.8496C22.0274 28.6417 22.1657 28.6911 22.262 28.7874C22.3583 28.8837 22.4077 29.0368 22.4077 29.2467V30.6837C22.4077 30.9084 22.3583 31.0738 22.262 31.1775C22.1657 31.2812 22.0274 31.3355 21.8496 31.3355H20.6175V36.9627C20.6175 37.1627 20.5509 37.3108 20.4175 37.4146C20.2842 37.5158 20.1385 37.5676 19.983 37.5676H18.2867C18.099 37.5676 17.9484 37.5084 17.8348 37.3899C17.7212 37.2713 17.6669 37.1306 17.6669 36.9627V31.3331H16.8595C16.6768 31.3331 16.5286 31.2812 16.4175 31.1775C16.304 31.0738 16.2496 30.9084 16.2496 30.6837V29.2467C16.2496 29.0368 16.3064 28.8837 16.4175 28.7874C16.5286 28.6911 16.6768 28.6417 16.8595 28.6417H17.6669V27.738L17.6644 27.7355Z" fill="white"/>
<path d="M22.9296 24.2358C22.9296 24.016 22.9765 23.8605 23.0703 23.7691C23.1641 23.6778 23.3123 23.6309 23.5098 23.6309H25.3296C25.5123 23.6309 25.6604 23.6778 25.774 23.7691C25.8876 23.8605 25.9419 24.016 25.9419 24.2358V25.7667C25.9419 25.8284 25.9271 25.8975 25.8999 25.9716C25.8703 26.0457 25.8308 26.1148 25.779 26.1839C25.7271 26.2506 25.6629 26.3074 25.5864 26.3518C25.5098 26.3963 25.4259 26.4185 25.332 26.4185H23.5123C23.1246 26.4185 22.932 26.2012 22.932 25.7667V24.2358H22.9296ZM22.9296 28.2086C22.9296 28.0407 22.9765 27.8975 23.0703 27.7765C23.1641 27.6555 23.3123 27.5963 23.5098 27.5963H25.3073C25.3691 27.5963 25.4382 27.6111 25.5123 27.6383C25.5864 27.6679 25.653 27.7099 25.7172 27.7642C25.779 27.8185 25.8333 27.8827 25.8777 27.9568C25.9222 28.0309 25.9444 28.1123 25.9444 28.2086V36.9593C25.9444 37.1593 25.8901 37.3099 25.779 37.4111C25.6678 37.5123 25.5123 37.5642 25.3073 37.5642H23.5098C23.1222 37.5642 22.9296 37.3642 22.9296 36.9593V28.2086Z" fill="white"/>
<path d="M27.0357 27.7371C27.1049 27.6803 27.1765 27.6432 27.2505 27.6284C27.3271 27.6136 27.3987 27.6062 27.4678 27.6062H28.653C28.7468 27.6062 28.8283 27.6235 28.895 27.6581C28.9641 27.6926 29.0209 27.7371 29.0678 27.7963C29.1147 27.8531 29.1518 27.9198 29.1814 27.9914C29.211 28.0655 29.2382 28.1395 29.2629 28.2186L29.4283 28.9074C29.5073 28.7445 29.6332 28.5791 29.8086 28.4062C29.9839 28.2334 30.2011 28.0778 30.4604 27.9371C30.7197 27.7963 31.0184 27.6803 31.3592 27.5889C31.6999 27.4976 32.0777 27.4531 32.4974 27.4531C33.095 27.4531 33.6258 27.5692 34.095 27.7988C34.5641 28.0284 34.9616 28.342 35.2876 28.7371C35.616 29.1346 35.8629 29.5963 36.0332 30.1272C36.2036 30.6581 36.2876 31.2235 36.2876 31.826V36.9667C36.2876 37.1667 36.2431 37.3149 36.1592 37.4186C36.0728 37.5198 35.9345 37.5716 35.7468 37.5716H33.9345C33.7098 37.5716 33.5542 37.5346 33.4703 37.4581C33.3863 37.3815 33.3444 37.2334 33.3444 37.0136V31.905C33.3444 31.6803 33.2925 31.4655 33.1913 31.2655C33.09 31.063 32.9542 30.8877 32.7863 30.7321C32.6184 30.5791 32.4283 30.4556 32.216 30.3667C32.0036 30.2778 31.7888 30.2334 31.569 30.2334C31.3814 30.2334 31.1888 30.2753 30.9913 30.3593C30.7962 30.4433 30.6135 30.5593 30.4505 30.7099C30.2851 30.8581 30.1468 31.0334 30.0332 31.2358C29.9197 31.4383 29.8555 31.6556 29.8407 31.8926V36.9939C29.8407 37.0828 29.8234 37.1716 29.7888 37.2605C29.7542 37.3494 29.7049 37.4161 29.6357 37.4655C29.5666 37.5074 29.5024 37.5371 29.4431 37.5519C29.3839 37.5667 29.3123 37.5741 29.2357 37.5741H27.4629C27.2382 37.5741 27.0752 37.5198 26.9765 37.4087C26.8777 37.3 26.8283 37.1519 26.8283 36.9692V28.1914C26.8283 28.0926 26.8505 28.0013 26.895 27.9173C26.9394 27.8334 27.0011 27.7692 27.0802 27.7223L27.0332 27.7445L27.0357 27.7371Z" fill="white"/>
<path d="M37.3825 24.2358C37.3825 24.016 37.4294 23.8605 37.5232 23.7691C37.6171 23.6778 37.7628 23.6309 37.9628 23.6309H39.785C39.9677 23.6309 40.1158 23.6778 40.2294 23.7691C40.3405 23.8605 40.3973 24.016 40.3973 24.2358V25.7667C40.3973 25.8284 40.3825 25.8975 40.3553 25.9716C40.3257 26.0457 40.2862 26.1148 40.2344 26.1839C40.1825 26.2506 40.1183 26.3074 40.0418 26.3518C39.9652 26.3963 39.8813 26.4185 39.7874 26.4185H37.9652C37.5776 26.4185 37.385 26.2012 37.385 25.7667V24.2358H37.3825ZM37.3825 28.2086C37.3825 28.0407 37.4294 27.8975 37.5232 27.7765C37.6171 27.6555 37.7628 27.5963 37.9628 27.5963H39.7603C39.822 27.5963 39.8911 27.6111 39.9652 27.6383C40.0393 27.6679 40.106 27.7099 40.1702 27.7642C40.2319 27.8185 40.2862 27.8827 40.3307 27.9568C40.3751 28.0309 40.3973 28.1123 40.3973 28.2086V36.9593C40.3973 37.1593 40.343 37.3099 40.2319 37.4111C40.1208 37.5123 39.9652 37.5642 39.7603 37.5642H37.9628C37.5751 37.5642 37.3825 37.3642 37.3825 36.9593V28.2086Z" fill="white"/>
<path d="M42.3106 26.0431C42.3106 25.8801 42.3649 25.7591 42.4711 25.6776C42.5772 25.5961 42.7303 25.5196 42.9303 25.4455L44.713 24.8258C44.7377 24.8208 44.7649 24.8184 44.7871 24.8184H44.8538C45.0464 24.8184 45.1772 24.8752 45.2414 24.9863C45.3056 25.0998 45.3402 25.248 45.3402 25.4307L45.3328 27.5887H46.4093C46.5772 27.5887 46.713 27.6381 46.8167 27.7369C46.9204 27.8356 46.9723 27.9863 46.9723 28.1838V29.6974C46.9723 29.9171 46.9204 30.0776 46.8167 30.1813C46.7106 30.2826 46.5748 30.3344 46.4093 30.3344H45.3328L45.3402 36.9591C45.3402 37.1591 45.2834 37.3097 45.1673 37.411C45.0513 37.5122 44.8933 37.564 44.6883 37.564H42.9155C42.513 37.564 42.3106 37.364 42.3106 36.9591L42.3032 30.3344H41.4957C41.0933 30.3344 40.8908 30.1221 40.8908 29.6998V28.1863C40.8908 27.7887 41.0933 27.5887 41.4957 27.5887H42.3032L42.3106 26.0431Z" fill="white"/>
<path d="M1.70404 41.4805C1.70404 41.3866 1.73614 41.3051 1.79787 41.236C1.8596 41.1693 1.94602 41.1348 2.05713 41.1348H4.38058C4.46947 41.1348 4.55095 41.1669 4.62503 41.2286C4.6991 41.2903 4.73614 41.3743 4.74355 41.4805V50.0187H9.0596C9.15342 50.0187 9.2349 50.0508 9.30404 50.1125C9.37318 50.1743 9.40528 50.2607 9.40528 50.3718V52.436C9.40528 52.5249 9.37565 52.6064 9.31392 52.6804C9.25466 52.7545 9.16824 52.794 9.0596 52.799H2.05219C1.82256 52.799 1.70651 52.6829 1.70651 52.4533V41.4805H1.70404Z" fill="white"/>
<path d="M18.4779 51.6027C18.0162 52.0274 17.5001 52.3583 16.9248 52.5953C16.3495 52.8324 15.7396 52.9534 15.0952 52.9534C14.3767 52.9534 13.7001 52.8225 13.0631 52.5608C12.4236 52.299 11.8656 51.9361 11.3841 51.4743C10.9026 51.0126 10.5199 50.4669 10.2384 49.8373C9.95446 49.2101 9.81372 48.5262 9.81372 47.7879C9.81372 47.3262 9.87051 46.8818 9.98162 46.4497C10.0927 46.0176 10.2532 45.6151 10.4606 45.2373C10.668 44.8595 10.9174 44.5138 11.2137 44.1978C11.51 43.8817 11.8409 43.6102 12.2063 43.3855C12.5717 43.1608 12.9693 42.9855 13.3989 42.8595C13.8261 42.7336 14.2804 42.6719 14.7569 42.6719C15.1915 42.6719 15.6113 42.7287 16.0211 42.8447C16.4285 42.9608 16.8137 43.1213 17.1717 43.3311C17.5298 43.541 17.8582 43.7904 18.1569 44.0842C18.4557 44.378 18.7125 44.6966 18.9248 45.0472C19.1396 45.3953 19.3051 45.7657 19.4236 46.1608C19.5396 46.5558 19.6014 46.9632 19.6014 47.3805C19.6014 47.6521 19.5964 47.8743 19.589 48.0472C19.5816 48.22 19.5421 48.3583 19.468 48.4595C19.394 48.5608 19.273 48.6324 19.1026 48.6719C18.9322 48.7114 18.6829 48.7311 18.3545 48.7311H12.7051C12.7569 49.0669 12.8631 49.3459 13.0236 49.5706C13.1841 49.7953 13.3668 49.9756 13.5767 50.1089C13.7866 50.2422 14.0088 50.3385 14.2433 50.3953C14.4779 50.4521 14.7001 50.4818 14.91 50.4818C15.0977 50.4818 15.2927 50.462 15.4903 50.4225C15.6878 50.383 15.8804 50.3311 16.068 50.2645C16.2532 50.2003 16.4236 50.1237 16.5792 50.0373C16.7347 49.9509 16.8582 49.8595 16.952 49.7657C17.0359 49.6966 17.1075 49.6472 17.1668 49.6126C17.2261 49.5781 17.2927 49.5608 17.3594 49.5608C17.4261 49.5608 17.4977 49.583 17.5668 49.6324C17.6359 49.6793 17.7174 49.7484 17.8063 49.8373L18.6384 50.7781C18.6952 50.8472 18.7322 50.9089 18.7471 50.9632C18.7619 51.0176 18.7717 51.0743 18.7717 51.1311C18.7717 51.2348 18.7421 51.3262 18.6853 51.4027C18.6285 51.4793 18.5594 51.546 18.4829 51.6027H18.4779ZM14.7026 45.0645C14.4977 45.0645 14.3001 45.1064 14.11 45.1855C13.9199 45.2669 13.7396 45.3756 13.5717 45.5114C13.4038 45.6472 13.2532 45.8027 13.1199 45.9731C12.9866 46.1459 12.8779 46.3213 12.794 46.499H16.8038C16.6927 46.2966 16.5742 46.1064 16.4458 45.9336C16.3174 45.7608 16.1717 45.6101 16.0063 45.4793C15.8409 45.3484 15.6532 45.2472 15.4409 45.1731C15.2285 45.099 14.9816 45.062 14.7001 45.062L14.7026 45.0645Z" fill="white"/>
<path d="M30.7106 52.2151C30.7106 52.304 30.6958 52.3879 30.6637 52.4694C30.6316 52.5509 30.5798 52.6151 30.5057 52.662C30.4489 52.7188 30.3798 52.7558 30.3007 52.7706C30.2217 52.7855 30.1551 52.7929 30.0958 52.7929H28.5501C28.4415 52.7929 28.3501 52.778 28.2835 52.7509C28.2143 52.7213 28.16 52.6818 28.118 52.6299C28.0761 52.5781 28.0415 52.5139 28.0119 52.4373C27.9847 52.3608 27.9526 52.2793 27.923 52.1904L27.8217 51.8373C27.681 51.978 27.5205 52.1163 27.3402 52.2521C27.16 52.3879 26.96 52.5089 26.7452 52.6176C26.5279 52.7237 26.2958 52.8126 26.0464 52.8768C25.797 52.941 25.5402 52.9756 25.2736 52.9756C24.797 52.9756 24.3402 52.9163 23.9032 52.7953C23.4662 52.6743 23.0588 52.504 22.6785 52.2818C22.2983 52.0595 21.9551 51.7929 21.6464 51.4817C21.3378 51.1706 21.0711 50.8225 20.8514 50.4422C20.6291 50.0595 20.4563 49.6472 20.3378 49.2052C20.2168 48.7632 20.1575 48.3015 20.1575 47.82C20.1575 47.0916 20.2909 46.4176 20.5575 45.7904C20.8242 45.1657 21.1872 44.6225 21.6489 44.1583C22.1106 43.6966 22.6514 43.3311 23.2736 43.0669C23.8958 42.8027 24.5625 42.6719 25.276 42.6719C25.5995 42.6719 25.9032 42.7089 26.1822 42.7805C26.4612 42.8546 26.718 42.9534 26.9526 43.0793C27.1847 43.2052 27.3946 43.3558 27.5847 43.5311C27.7748 43.7064 27.9378 43.8966 28.0785 44.099L28.3057 43.3855C28.3575 43.2546 28.402 43.1484 28.4365 43.0669C28.4711 42.9855 28.5081 42.9262 28.5477 42.8867C28.5872 42.8472 28.6341 42.8225 28.6933 42.8077C28.7501 42.7953 28.8316 42.7879 28.9353 42.7879H30.1032C30.1625 42.7879 30.2291 42.7953 30.3081 42.8101C30.3872 42.825 30.4538 42.862 30.5131 42.9213C30.5872 42.9781 30.639 43.0447 30.6711 43.1188C30.7032 43.1929 30.718 43.2743 30.718 43.3682V52.2126L30.7106 52.2151ZM22.9798 47.82C22.9798 48.1657 23.0341 48.4892 23.1402 48.7904C23.2464 49.0916 23.3995 49.3509 23.5995 49.5706C23.7995 49.7904 24.039 49.9657 24.318 50.0941C24.597 50.2225 24.9082 50.2867 25.2489 50.2867C25.5896 50.2867 25.9254 50.2225 26.2267 50.0941C26.5279 49.9657 26.7896 49.7929 27.0119 49.5706C27.2341 49.3509 27.4069 49.0916 27.5328 48.7904C27.6588 48.4892 27.7205 48.1657 27.7205 47.82C27.7205 47.4743 27.6588 47.1657 27.5328 46.862C27.4069 46.5583 27.2341 46.2916 27.0119 46.062C26.7896 45.8324 26.5279 45.6496 26.2267 45.5163C25.9254 45.383 25.5995 45.3163 25.2489 45.3163C24.8983 45.3163 24.5995 45.383 24.318 45.5163C24.039 45.6496 23.7995 45.8324 23.5995 46.062C23.402 46.2916 23.2489 46.5608 23.1402 46.862C23.0341 47.1657 22.9798 47.4842 22.9798 47.82Z" fill="white"/>
<path d="M31.8137 43.4116C31.8137 43.3128 31.8309 43.2264 31.868 43.1523C31.905 43.0782 31.9519 43.019 32.0137 42.9721C32.0729 42.9252 32.1421 42.8906 32.2186 42.8659C32.2951 42.8437 32.3692 42.8313 32.4433 42.8313H33.6285C33.7593 42.8313 33.863 42.8708 33.9421 42.9499C34.0211 43.0289 34.0877 43.1276 34.1421 43.2486C34.1964 43.3696 34.2458 43.5029 34.2877 43.6486C34.3297 43.7943 34.3791 43.9375 34.4359 44.0733C34.5939 43.9005 34.7495 43.7301 34.9026 43.5622C35.0556 43.3943 35.2235 43.2462 35.4013 43.1153C35.5791 42.9844 35.7742 42.8782 35.9865 42.7968C36.1988 42.7153 36.4408 42.6758 36.7124 42.6758C36.984 42.6758 37.2482 42.698 37.4705 42.7375C37.6927 42.7795 37.9025 42.8412 38.1025 42.9227C38.3025 43.0042 38.5001 43.1079 38.6951 43.2338C38.8902 43.3597 39.105 43.5054 39.3346 43.6733C39.5593 43.8042 39.6729 43.9573 39.6729 44.135C39.6729 44.2511 39.6285 44.3844 39.5396 44.535L38.826 45.7523C38.6853 45.9573 38.51 46.0585 38.3001 46.0585C38.1964 46.0585 38.0779 46.0289 37.947 45.9721C37.7223 45.7523 37.4927 45.5894 37.2606 45.4807C37.0285 45.3745 36.7618 45.3202 36.463 45.3202C36.2581 45.3202 36.0803 45.3499 35.9248 45.4066C35.7717 45.4634 35.6309 45.5449 35.505 45.6486C35.3791 45.7548 35.263 45.8783 35.1519 46.0264C35.0433 46.1721 34.9322 46.335 34.8235 46.5128V52.1943C34.8235 52.3943 34.7742 52.5424 34.6779 52.6462C34.5816 52.7474 34.4211 52.7992 34.1964 52.7992H32.4309C32.0235 52.7992 31.8186 52.5992 31.8186 52.1943V43.4116H31.8137Z" fill="white"/>
<path d="M40.2628 42.9681C40.332 42.9113 40.4036 42.8742 40.4776 42.8594C40.5542 42.8446 40.6258 42.8372 40.6925 42.8372H41.8776C41.9715 42.8372 42.053 42.8545 42.1196 42.889C42.1888 42.9236 42.2455 42.9681 42.2925 43.0273C42.3394 43.0841 42.3764 43.1508 42.406 43.2224C42.4357 43.2965 42.4628 43.3705 42.4875 43.4495L42.653 44.1384C42.732 43.9755 42.8579 43.81 43.0332 43.6372C43.2085 43.4644 43.4258 43.3088 43.6851 43.1681C43.9443 43.0273 44.2431 42.9113 44.5838 42.8199C44.9246 42.7286 45.3023 42.6816 45.7221 42.6816C46.3196 42.6816 46.8505 42.7977 47.3196 43.0248C47.7888 43.2545 48.1863 43.5681 48.5122 43.9631C48.8381 44.3607 49.0875 44.8224 49.2579 45.3532C49.4283 45.8841 49.5122 46.4495 49.5122 47.052V52.1927C49.5122 52.3927 49.4702 52.5409 49.3838 52.6446C49.2974 52.7458 49.1591 52.7977 48.9715 52.7977H47.1591C46.9344 52.7977 46.7789 52.7607 46.6949 52.6841C46.611 52.6076 46.569 52.4594 46.569 52.2421V47.1335C46.569 46.9088 46.5172 46.6965 46.4159 46.494C46.3147 46.2915 46.1789 46.1137 46.011 45.9607C45.8431 45.8076 45.653 45.6841 45.4431 45.5952C45.2307 45.5063 45.0159 45.4619 44.7962 45.4619C44.606 45.4619 44.4159 45.5039 44.2184 45.5878C44.0209 45.6718 43.8406 45.7878 43.6752 45.936C43.5097 46.0841 43.3715 46.2594 43.2604 46.4619C43.1468 46.6619 43.0826 46.8816 43.0678 47.1162V52.2174C43.0678 52.3063 43.0505 52.3952 43.0159 52.4841C42.9813 52.573 42.9295 52.6421 42.8628 52.689C42.7937 52.731 42.7295 52.7607 42.6702 52.7755C42.611 52.7903 42.5418 52.7977 42.4628 52.7977H40.69C40.4653 52.7977 40.3023 52.7434 40.2036 52.6323C40.1048 52.5236 40.0554 52.3755 40.0554 52.1927V43.415C40.0554 43.3162 40.0776 43.2248 40.1221 43.1409C40.1665 43.0569 40.2283 42.9928 40.3073 42.9458L40.2604 42.9681H40.2628Z" fill="white"/>
<path d="M61.1778 28.4072L52.0444 41.2418C52.0444 41.2418 51.7605 41.6319 52.2913 41.7208H60.2271C60.2271 41.7208 61.8592 41.5825 62.8864 39.6665L70.8987 28.3307C70.8987 28.3307 70.9852 28.2072 70.9654 28.1035H61.395C61.395 28.1035 61.2271 28.3381 61.1778 28.4072Z" fill="url(#paint0_linear_0_3419)"/>
<path d="M55.2396 28.4072L46.1062 41.2418C46.1062 41.2418 45.8223 41.6319 46.3532 41.7208H48.5359C48.5359 41.7208 50.168 41.5825 51.1951 39.6665L59.2075 28.3307C59.2075 28.3307 59.2939 28.2072 59.2741 28.1035H55.4569C55.4569 28.1035 55.289 28.3381 55.2396 28.4072Z" fill="url(#paint1_linear_0_3419)"/>
<path d="M61.1778 27.798L52.0444 14.9634C52.0444 14.9634 51.7605 14.5733 52.2913 14.4844H60.2271C60.2271 14.4844 61.8592 14.6226 62.8864 16.5387L70.8987 27.8745C70.8987 27.8745 70.9852 27.998 70.9654 28.1017H61.395C61.395 28.1017 61.2271 27.8671 61.1778 27.798Z" fill="url(#paint2_linear_0_3419)"/>
<path d="M50.0498 34.4464L52.0251 31.9205L50.6572 28.1032C50.6572 28.1032 50.5436 27.6662 50.2004 27.6094H48.035C48.035 27.6094 47.4473 27.6464 47.5214 28.2736L50.0473 34.4439L50.0498 34.4464Z" fill="white"/>
<path d="M57.8539 35.4219L57.8193 37.3083L56.0934 36.333L57.8539 35.4219Z" fill="white"/>
<path d="M57.2905 40.3435L55.767 41.4571L55.5004 39.4941L57.2905 40.3435Z" fill="white"/>
<path d="M55.0141 34.7366L54.8907 33.9316L55.187 34.0008L55.0141 34.7366Z" fill="white"/>
<path d="M65.0742 31.5879L64.6297 33.1558L64.1483 32.783L65.0742 31.5879Z" fill="white"/>
<path d="M59.5782 29.8125L60.6128 30.0644L60.3831 30.3878L59.5782 29.8125Z" fill="white"/>
<path d="M46.8263 37.7246L46.7967 39.2308L48.0757 38.7987L48.0955 37.7468L46.8263 37.7246Z" fill="white"/>
<path d="M62.9418 30.4548L62.922 31.5363L62.0159 31.1931L62.0307 30.4375L62.9418 30.4548Z" fill="white"/>
<path d="M66.2273 40.8281L66.9261 41.6528L66.0224 41.9936L65.531 41.4183L66.2273 40.8281Z" fill="white"/>
<path d="M63.271 34.4629L63.7055 34.974L63.145 35.1839L62.8438 34.8283L63.271 34.4629Z" fill="white"/>
<path d="M52.1164 44.6973L52.551 45.2084L51.9905 45.4183L51.6868 45.0627L52.1164 44.6973Z" fill="white"/>
<path d="M69.4785 27.3906L69.4415 29.277L67.718 28.3017L69.4785 27.3906Z" fill="white"/>
<path d="M70.9119 32.3123L69.3885 33.4259L69.1243 31.4629L70.9119 32.3123Z" fill="white"/>
<path d="M66.6388 26.7053L66.5153 25.9004L66.8116 25.9695L66.6388 26.7053Z" fill="white"/>
<path d="M76.6964 23.5566L76.2544 25.1245L75.7729 24.7517L76.6964 23.5566Z" fill="white"/>
<path d="M71.2028 21.7812L72.2374 22.0331L72.0078 22.3566L71.2028 21.7812Z" fill="white"/>
<path d="M58.451 29.6934L58.4213 31.202L59.7003 30.7699L59.7201 29.718L58.451 29.6934Z" fill="white"/>
<path d="M74.564 22.4211L74.5442 23.505L73.6405 23.1618L73.6553 22.4062L74.564 22.4211Z" fill="white"/>
<path d="M74.8956 26.4316L75.3277 26.9428L74.7697 27.1526L74.4684 26.7971L74.8956 26.4316Z" fill="white"/>
<path d="M63.741 36.666L64.1731 37.1771L63.6151 37.387L63.3114 37.0314L63.741 36.666Z" fill="white"/>
<path d="M49.7342 19.1265L50.6404 18.3438L50.912 19.5709L49.7342 19.1265Z" fill="white"/>
<path d="M52.2972 17.2969L53.4676 17.5438L52.6552 18.5018L52.2972 17.2969Z" fill="white"/>
<path d="M50.6218 20.7598L50.2966 21.1589L50.2029 20.9914L50.6218 20.7598Z" fill="white"/>
<path d="M44.8598 17.3474L45.7882 16.8906L45.8178 17.2758L44.8598 17.3474Z" fill="white"/>
<path d="M46.3526 20.6954L46.0312 20.0995L46.2834 20.0723L46.3526 20.6954Z" fill="white"/>
<path d="M55.505 23.3536L56.2284 22.7264L55.4827 22.3066L54.9766 22.7437L55.505 23.3536Z" fill="white"/>
<path d="M45.2346 18.8366L45.7531 18.3848L45.9754 18.9601L45.6124 19.2737L45.2346 18.8366Z" fill="white"/>
<path d="M48.7272 12.8787L48.8186 12.1973L49.3667 12.4787L49.3025 12.9553L48.7272 12.8787Z" fill="white"/>
<path d="M46.9844 16.9755L47.041 16.5566L47.3761 16.7316L47.3367 17.0223L46.9844 16.9755Z" fill="white"/>
<path d="M56.5472 17.8915L56.6039 17.4727L56.939 17.6476L56.8996 17.9384L56.5472 17.8915Z" fill="white"/>
<path d="M59.519 12.0352L59.4844 13.9216L61.2425 13.0129L59.519 12.0352Z" fill="white"/>
<path d="M59.8896 18.98L61.3711 20.1479L61.7093 18.1973L59.8896 18.98Z" fill="white"/>
<path d="M62.379 13.4577L62.5321 12.6602L62.2333 12.7169L62.379 13.4577Z" fill="white"/>
<path d="M52.4444 9.94141L52.8296 11.5217L53.3234 11.1686L52.4444 9.94141Z" fill="white"/>
<path d="M57.9948 8.36914L56.9528 8.58149L57.1726 8.91235L57.9948 8.36914Z" fill="white"/>
<path d="M70.4448 16.7532L70.4152 18.2594L69.1559 17.7804L69.1757 16.7285L70.4448 16.7532Z" fill="white"/>
<path d="M54.6131 8.88477L54.5934 9.96625L55.5119 9.65513L55.5242 8.90205L54.6131 8.88477Z" fill="white"/>
<path d="M50.9489 19.1289L50.2181 19.9264L51.1094 20.3017L51.6205 19.7462L50.9489 19.1289Z" fill="white"/>
<path d="M54.139 12.8789L53.6872 13.3727L54.2403 13.6048L54.5539 13.2592L54.139 12.8789Z" fill="white"/>
<path d="M64.9047 23.5195L64.4528 24.0109L65.0034 24.243L65.3195 23.8998L64.9047 23.5195Z" fill="white"/>
<path d="M60.1634 10.2134L61.0696 9.42822L61.3412 10.6579L60.1634 10.2134Z" fill="white"/>
<path d="M62.7254 8.38135L63.8982 8.62826L63.0834 9.58629L62.7254 8.38135Z" fill="white"/>
<path d="M61.0422 11.8442L60.717 12.2434L60.6234 12.0759L61.0422 11.8442Z" fill="white"/>
<path d="M55.288 8.43189L56.214 7.9751L56.2436 8.36028L55.288 8.43189Z" fill="white"/>
<path d="M56.7818 11.774L56.4604 11.1805L56.7101 11.1509L56.7818 11.774Z" fill="white"/>
<path d="M65.9332 14.4346L66.6566 13.8075L65.911 13.3853L65.4048 13.8248L65.9332 14.4346Z" fill="white"/>
<path d="M55.655 9.91862L56.176 9.46924L56.3958 10.0421L56.0353 10.3557L55.655 9.91862Z" fill="white"/>
<path d="M59.1555 3.96075L59.2468 3.28174L59.7925 3.56322L59.7283 4.03976L59.1555 3.96075Z" fill="white"/>
<path d="M57.4057 8.05999L57.4624 7.64111L57.7999 7.8136L57.7605 8.10681L57.4057 8.05999Z" fill="white"/>
<path d="M66.9755 8.97601L67.0321 8.55713L67.3697 8.72961L67.3303 9.02282L66.9755 8.97601Z" fill="white"/>
<path d="M55.0444 6.95864L54.4247 6.38086L54.2025 7.24012L55.0444 6.95864Z" fill="white"/>
<path d="M53.2873 5.59961L52.4527 5.74282L53.0008 6.43912L53.2873 5.59961Z" fill="white"/>
<path d="M54.3904 8.08398L54.6097 8.37227L54.6787 8.25646L54.3904 8.08398Z" fill="white"/>
<path d="M58.5311 5.83054L57.8882 5.48438L57.8585 5.75388L58.5311 5.83054Z" fill="white"/>
<path d="M57.3898 8.15148L57.6312 7.73999L57.4563 7.71289L57.3898 8.15148Z" fill="white"/>
<path d="M50.868 9.78268L50.3742 9.32342L50.9125 9.04688L51.2557 9.36786L50.868 9.78268Z" fill="white"/>
<path d="M58.2321 6.86843L57.876 6.53711L57.7029 6.93519L57.9527 7.16762L58.2321 6.86843Z" fill="white"/>
<path d="M55.9236 2.57837L55.8766 2.09375L55.4835 2.27919L55.5156 2.61793L55.9236 2.57837Z" fill="white"/>
<path d="M57.0521 5.50857L57.025 5.21289L56.7811 5.32624L56.8032 5.53321L57.0521 5.50857Z" fill="white"/>
<path d="M50.2782 5.90752L50.2487 5.60938L50.0072 5.72272L50.0269 5.93216L50.2782 5.90752Z" fill="white"/>
<path d="M105.73 22.4211H101.076V21.2576C101.076 20.7405 101.011 20.3527 100.882 20.2234C100.753 20.0941 100.559 20.0295 100.3 20.0295C99.9769 20.0295 99.783 20.1588 99.5891 20.3527C99.4598 20.5466 99.3305 20.8698 99.3305 21.2576C99.3305 21.7747 99.3952 22.1626 99.5891 22.4211C99.783 22.6797 100.235 23.0029 101.011 23.3907C103.209 24.4896 104.631 25.3945 105.213 26.1056C105.794 26.8166 106.053 27.9155 106.053 29.4668C106.053 30.6303 105.859 31.406 105.601 31.9877C105.277 32.5048 104.631 32.9573 103.726 33.3451C102.821 33.733 101.722 33.8622 100.494 33.8622C99.1366 33.8622 98.0378 33.6683 97.0682 33.2159C96.0986 32.828 95.5168 32.2463 95.1936 31.5999C94.8704 30.9535 94.7412 30.0485 94.7412 28.8204V27.7862H99.3952V29.7253C99.3952 30.3071 99.4598 30.6949 99.5891 30.8889C99.7184 31.0828 99.9769 31.1474 100.3 31.1474C100.623 31.1474 100.882 31.0181 101.011 30.8242C101.205 30.6303 101.27 30.3071 101.27 29.8546C101.27 28.9497 101.14 28.3033 100.817 28.0447C100.494 27.7862 99.7184 27.2691 98.4902 26.6227C97.2621 25.9116 96.4218 25.4592 96.0339 25.136C95.6461 24.8128 95.3229 24.4249 94.9997 23.8432C94.7412 23.3261 94.6119 22.615 94.6119 21.7747C94.6119 20.5466 94.8058 19.6416 95.1936 19.1245C95.5815 18.5428 96.1632 18.1549 97.0035 17.8318C97.8438 17.5086 98.8781 17.3793 100.042 17.3793C101.334 17.3793 102.433 17.5732 103.338 17.8964C104.243 18.2196 104.825 18.6721 105.148 19.1892C105.471 19.7063 105.601 20.6112 105.601 21.8394V22.4211H105.73ZM112.323 20.482L112.129 22.2272C112.84 20.9991 113.874 20.3527 115.167 20.288V24.8774C114.262 24.8774 113.616 25.0067 113.228 25.2006C112.84 25.3945 112.582 25.6531 112.452 26.0409C112.388 26.3641 112.323 27.2044 112.323 28.4326V33.6037H107.54V20.482H112.323ZM121.243 17.5732V19.6416H116.331V17.5732H121.243ZM121.243 20.482V33.4744H116.331V20.482H121.243ZM139.084 24.5542H134.042V21.7747C134.042 20.9991 133.977 20.482 133.912 20.288C133.783 20.0941 133.589 19.9648 133.201 19.9648C132.814 19.9648 132.555 20.0941 132.426 20.3527C132.296 20.6112 132.232 21.1283 132.232 21.904V29.2729C132.232 30.0485 132.296 30.5657 132.426 30.7596C132.555 31.0181 132.814 31.0828 133.137 31.0828C133.525 31.0828 133.719 30.9535 133.848 30.7596C133.977 30.501 134.042 29.9839 134.042 29.079V27.0751H139.084V27.7215C139.084 29.3375 138.954 30.5657 138.631 31.212C138.373 31.9231 137.726 32.5048 136.757 33.0219C135.787 33.539 134.623 33.7976 133.201 33.7976C131.715 33.7976 130.551 33.6037 129.582 33.1512C128.612 32.6987 128.03 32.117 127.707 31.3413C127.384 30.5657 127.255 29.4022 127.255 27.8508V23.1968C127.255 22.0333 127.319 21.193 127.384 20.6112C127.513 20.0295 127.772 19.5124 128.224 18.9306C128.677 18.4135 129.323 17.961 130.163 17.7025C131.004 17.3793 131.973 17.25 133.072 17.25C134.559 17.25 135.787 17.5086 136.757 17.961C137.726 18.4135 138.373 18.9953 138.631 19.7063C138.954 20.4173 139.084 21.5162 139.084 23.0029V24.5542ZM145.547 17.5732V21.1283C145.935 20.8052 146.388 20.5466 146.905 20.4173C147.357 20.288 147.874 20.1588 148.456 20.1588C149.297 20.1588 150.008 20.3527 150.589 20.6759C151.171 20.9991 151.559 21.4515 151.688 21.904C151.817 22.3565 151.882 23.1968 151.882 24.4249V33.4098H147.099V24.3603C147.099 23.5846 147.034 23.1322 146.97 22.8736C146.905 22.6797 146.646 22.5504 146.323 22.5504C146 22.5504 145.806 22.6797 145.741 22.8736C145.612 23.0675 145.612 23.52 145.612 24.1664V33.4744H140.829V17.5732H145.547ZM157.764 25.5238H153.24V24.6189C153.24 23.5846 153.369 22.809 153.692 22.2918C153.951 21.7747 154.532 21.2576 155.373 20.8698C156.213 20.482 157.312 20.2234 158.669 20.2234C160.285 20.2234 161.513 20.482 162.354 20.9344C163.194 21.3869 163.646 21.9687 163.84 22.6797C164.034 23.3907 164.099 24.8128 164.099 26.9459V33.4744H159.445V32.3109C159.122 32.7634 158.799 33.1512 158.281 33.3451C157.829 33.6037 157.247 33.6683 156.601 33.6683C155.76 33.6683 154.985 33.4744 154.274 33.0866C153.563 32.6987 153.24 31.8584 153.24 30.501V29.4021C153.24 28.4326 153.433 27.7862 153.821 27.3983C154.209 27.0751 155.114 26.6227 156.601 26.1702C158.152 25.6531 158.992 25.3299 159.122 25.136C159.251 24.9421 159.316 24.6189 159.316 24.0371C159.316 23.3261 159.251 22.9382 159.122 22.6797C158.992 22.4858 158.799 22.3565 158.475 22.3565C158.152 22.3565 157.958 22.4211 157.894 22.615C157.829 22.809 157.764 23.2614 157.764 23.9725V25.5238ZM159.316 27.3337C158.54 27.7862 158.087 28.174 157.958 28.4972C157.829 28.8204 157.764 29.2729 157.764 29.8546C157.764 30.501 157.829 30.9535 157.958 31.1474C158.087 31.3413 158.281 31.4706 158.605 31.4706C158.928 31.4706 159.122 31.406 159.186 31.212C159.251 31.0828 159.316 30.6303 159.316 29.9839V27.3337ZM170.692 17.5732V19.6416H165.78V17.5732H170.692ZM170.692 20.482V33.4744H165.78V20.482H170.692ZM177.479 18.7367V20.8052H178.837V22.8736H177.479V29.8546C177.479 30.6949 177.544 31.212 177.673 31.2767C177.802 31.406 178.255 31.406 179.031 31.406V33.4744H177.091C175.992 33.4744 175.217 33.4098 174.764 33.3451C174.312 33.2805 173.859 33.0866 173.536 32.828C173.148 32.5695 172.954 32.2463 172.89 31.9231C172.825 31.5999 172.761 30.7596 172.761 29.4668V22.8736H171.726V20.8052H172.761V18.7367H177.479ZM184.137 25.5238H179.612V24.6189C179.612 23.5846 179.742 22.809 180.065 22.2918C180.323 21.7747 180.905 21.2576 181.745 20.8698C182.586 20.482 183.685 20.2234 185.042 20.2234C186.658 20.2234 187.886 20.482 188.726 20.9344C189.567 21.3869 190.019 21.9687 190.213 22.6797C190.407 23.3907 190.472 24.8128 190.472 26.9459V33.4744H185.818V32.3109C185.494 32.7634 185.171 33.1512 184.654 33.3451C184.202 33.6037 183.62 33.6683 182.974 33.6683C182.133 33.6683 181.358 33.4744 180.646 33.0866C179.935 32.6987 179.612 31.8584 179.612 30.501V29.4021C179.612 28.4326 179.806 27.7862 180.194 27.3983C180.582 27.0751 181.487 26.6227 182.974 26.1702C184.525 25.6531 185.365 25.3299 185.494 25.136C185.624 24.9421 185.688 24.6189 185.688 24.0371C185.688 23.3261 185.624 22.9382 185.494 22.6797C185.365 22.4858 185.171 22.3565 184.848 22.3565C184.525 22.3565 184.331 22.4211 184.266 22.615C184.202 22.809 184.137 23.2614 184.137 23.9725V25.5238ZM185.688 27.3337C184.913 27.7862 184.46 28.174 184.331 28.4972C184.202 28.8204 184.137 29.2729 184.137 29.8546C184.137 30.501 184.202 30.9535 184.331 31.1474C184.46 31.3413 184.654 31.4706 184.977 31.4706C185.301 31.4706 185.494 31.406 185.559 31.212C185.624 31.0828 185.688 30.6303 185.688 29.9839V27.3337ZM197 20.482L196.936 21.7101C197.259 21.2576 197.711 20.8698 198.228 20.6112C198.745 20.3527 199.327 20.2234 199.974 20.2234C200.814 20.2234 201.46 20.3527 201.977 20.6759C202.495 20.9991 202.818 21.3869 203.012 21.904C203.141 22.4211 203.27 23.1968 203.27 24.3603V33.4744H198.487V24.4896C198.487 23.5846 198.422 23.0675 198.358 22.8736C198.293 22.6797 198.099 22.5504 197.776 22.5504C197.453 22.5504 197.194 22.6797 197.129 22.8736C197.065 23.1322 197 23.7139 197 24.6835V33.4744H192.088V20.482H197ZM214.905 20.482L213.548 29.9193C213.354 31.406 213.16 32.4402 213.031 32.9573C212.901 33.4744 212.643 33.9269 212.32 34.3147C211.996 34.6379 211.479 34.8965 210.898 35.0904C210.316 35.2843 209.346 35.3489 207.989 35.3489H205.015V33.2805C205.791 33.2805 206.244 33.2805 206.438 33.2159C206.631 33.1512 206.761 33.0219 206.761 32.828C206.761 32.6987 206.631 32.2463 206.438 31.4706L203.787 20.6112H208.118L209.669 29.4021L210.445 20.6112H214.905V20.482ZM220.076 25.5238H215.552V24.6189C215.552 23.5846 215.681 22.809 216.004 22.2918C216.263 21.7747 216.844 21.2576 217.685 20.8698C218.525 20.482 219.624 20.2234 220.981 20.2234C222.597 20.2234 223.825 20.482 224.666 20.9344C225.506 21.3869 225.959 21.9687 226.152 22.6797C226.346 23.3907 226.411 24.8128 226.411 26.9459V33.4744H221.757V32.3109C221.434 32.7634 221.111 33.1512 220.593 33.3451C220.141 33.6037 219.559 33.6683 218.913 33.6683C218.073 33.6683 217.297 33.4744 216.586 33.0866C215.875 32.6987 215.552 31.8584 215.552 30.501V29.4021C215.552 28.4326 215.746 27.7862 216.133 27.3983C216.521 27.0751 217.426 26.6227 218.913 26.1702C220.464 25.6531 221.304 25.3299 221.434 25.136C221.563 24.9421 221.628 24.6189 221.628 24.0371C221.628 23.3261 221.563 22.9382 221.434 22.6797C221.304 22.4858 221.111 22.3565 220.787 22.3565C220.464 22.3565 220.27 22.4211 220.206 22.615C220.141 22.809 220.076 23.2614 220.076 23.9725V25.5238ZM221.563 27.3337C220.787 27.7862 220.335 28.174 220.206 28.4972C220.076 28.8204 220.012 29.2729 220.012 29.8546C220.012 30.501 220.076 30.9535 220.206 31.1474C220.335 31.3413 220.529 31.4706 220.852 31.4706C221.175 31.4706 221.369 31.406 221.434 31.212C221.498 31.0828 221.563 30.6303 221.563 29.9839V27.3337Z" fill="white"/>
<path d="M94.0952 46.4022V37.0295H100.882V38.1283H95.3879V41.0371H100.559V42.136H95.3879V45.3679H101.141V46.4668H94.0952V46.4022ZM107.023 46.4022V45.5618C106.829 45.885 106.57 46.1436 106.247 46.3375C105.924 46.5314 105.536 46.5961 105.213 46.5961C104.437 46.5961 103.726 46.2729 103.145 45.6911C102.563 45.0447 102.24 44.2044 102.24 43.0409C102.24 42.2652 102.369 41.6189 102.628 41.1017C102.886 40.5846 103.209 40.1322 103.662 39.8736C104.114 39.615 104.567 39.4858 105.084 39.4858C105.472 39.4858 105.795 39.5504 106.118 39.7443C106.441 39.9382 106.7 40.1322 106.894 40.4554V37.0941H108.057V46.5314H107.023V46.4022ZM103.403 43.0409C103.403 43.9459 103.597 44.5923 103.985 44.9801C104.373 45.4326 104.761 45.6265 105.278 45.6265C105.795 45.6265 106.183 45.4326 106.57 44.9801C106.958 44.5923 107.088 43.9459 107.088 43.1056C107.088 42.136 106.894 41.4249 106.57 41.0371C106.183 40.5846 105.73 40.3907 105.213 40.3907C104.761 40.3907 104.308 40.5846 103.985 41.0371C103.532 41.4249 103.403 42.136 103.403 43.0409ZM114.327 46.4022V45.4326C114.069 45.8204 113.745 46.079 113.422 46.2729C113.034 46.4668 112.647 46.5314 112.194 46.5314C111.677 46.5314 111.225 46.4021 110.837 46.1436C110.449 45.885 110.19 45.6265 110.061 45.2386C109.932 44.8508 109.867 44.3983 109.867 43.7519V39.5504H111.031V43.3641C111.031 44.0751 111.095 44.5276 111.16 44.7862C111.225 45.0447 111.418 45.2386 111.612 45.3679C111.871 45.4972 112.129 45.5618 112.388 45.5618C112.905 45.5618 113.358 45.3679 113.745 44.9801C114.069 44.6569 114.198 44.0751 114.198 43.2348V39.5504H115.361V46.4022H114.327ZM121.567 43.9459L122.73 44.0751C122.601 44.9155 122.278 45.4972 121.761 45.9497C121.244 46.4021 120.597 46.5961 119.886 46.5961C118.981 46.5961 118.27 46.2729 117.688 45.6911C117.107 45.1094 116.848 44.2044 116.848 43.0409C116.848 41.8774 117.107 40.9725 117.688 40.3907C118.27 39.809 119.046 39.4858 119.951 39.4858C120.662 39.4858 121.244 39.6797 121.696 40.0029C122.149 40.3907 122.472 40.9078 122.601 41.6189L121.502 41.8128C121.373 41.3603 121.179 40.9725 120.92 40.7785C120.662 40.52 120.339 40.4554 119.951 40.4554C119.369 40.4554 118.917 40.6493 118.529 41.1017C118.141 41.4896 117.947 42.2006 117.947 43.0409C117.947 43.9459 118.141 44.6569 118.464 45.0447C118.787 45.4326 119.24 45.6911 119.822 45.6911C120.274 45.6911 120.597 45.5618 120.92 45.3033C121.308 44.9154 121.502 44.5276 121.567 43.9459ZM128.095 45.5618C127.707 45.885 127.32 46.1436 126.867 46.3375C126.479 46.5314 126.027 46.5961 125.574 46.5961C124.863 46.5961 124.282 46.4022 123.894 46.079C123.441 45.7558 123.247 45.2386 123.247 44.6569C123.247 44.2691 123.377 43.9459 123.571 43.6227C123.764 43.2995 124.023 43.1056 124.411 42.9116C124.734 42.7177 125.251 42.5884 125.962 42.5238C126.867 42.3945 127.578 42.2652 128.031 42.136V41.8128C128.031 41.3603 127.901 41.0371 127.707 40.8432C127.449 40.5846 126.996 40.4554 126.415 40.4554C125.898 40.4554 125.51 40.52 125.187 40.7139C124.928 40.9078 124.734 41.231 124.605 41.7481L123.441 41.5542C123.635 40.8432 123.958 40.3261 124.411 40.0029C124.928 39.6797 125.639 39.4858 126.544 39.4858C127.255 39.4858 127.837 39.615 128.225 39.809C128.612 40.0029 128.871 40.3261 129 40.6493C129.13 40.9725 129.13 41.4249 129.13 42.0713V43.6227C129.13 44.7215 129.13 45.3679 129.194 45.6911C129.259 45.9497 129.323 46.2729 129.517 46.5314H128.354C128.225 46.2082 128.16 45.885 128.095 45.5618ZM128.031 42.9763C127.643 43.1702 126.996 43.2995 126.156 43.4288C125.704 43.4934 125.316 43.558 125.122 43.6873C124.928 43.7519 124.799 43.8812 124.669 44.0751C124.54 44.2044 124.54 44.3983 124.54 44.6569C124.54 44.9801 124.669 45.2386 124.928 45.4326C125.187 45.6265 125.51 45.7558 125.962 45.7558C126.35 45.7558 126.738 45.6911 127.061 45.4972C127.384 45.3033 127.643 45.1094 127.837 44.7862C128.031 44.463 128.095 44.0751 128.095 43.4934V42.9763H128.031ZM133.525 45.3679L133.654 46.4022C133.331 46.4668 133.073 46.5314 132.814 46.5314C132.426 46.5314 132.103 46.4668 131.844 46.3375C131.586 46.2082 131.457 46.0143 131.327 45.8204C131.263 45.6265 131.198 45.1094 131.198 44.463V40.52H130.358V39.615H131.198V37.9344L132.361 37.2234V39.615H133.525V40.52H132.361V44.5276C132.361 44.9155 132.426 45.1094 132.491 45.2386C132.62 45.3679 132.749 45.4972 133.073 45.4972C133.137 45.4326 133.331 45.4326 133.525 45.3679ZM134.624 38.3223V36.9648H135.787V38.3223H134.624ZM134.624 46.4022V39.615H135.787V46.4668H134.624V46.4022ZM137.08 43.0409C137.08 41.8774 137.403 40.9725 137.985 40.3907C138.567 39.809 139.343 39.4858 140.247 39.4858C141.152 39.4858 141.928 39.809 142.51 40.3907C143.092 40.9725 143.415 41.8774 143.415 42.9763C143.415 44.2044 143.092 45.1094 142.51 45.6911C141.928 46.2729 141.152 46.5961 140.247 46.5961C139.343 46.5961 138.567 46.2729 137.985 45.6911C137.339 45.0447 137.08 44.2044 137.08 43.0409ZM138.244 43.0409C138.244 43.9459 138.438 44.5923 138.825 45.0447C139.213 45.4972 139.666 45.6911 140.247 45.6911C140.765 45.6911 141.217 45.4972 141.605 45.0447C141.993 44.5923 142.187 43.9459 142.187 43.1056C142.187 42.2006 141.993 41.5542 141.605 41.1664C141.217 40.7139 140.765 40.52 140.183 40.52C139.666 40.52 139.149 40.7139 138.825 41.1664C138.438 41.4896 138.244 42.136 138.244 43.0409ZM144.772 46.4022V39.615H145.806V40.5846C146.065 40.1968 146.388 39.9382 146.711 39.7443C147.099 39.5504 147.487 39.4858 147.94 39.4858C148.327 39.4858 148.651 39.5504 148.974 39.6797C149.297 39.809 149.555 39.9382 149.749 40.1322C149.943 40.3261 150.073 40.5846 150.202 40.8432C150.267 41.1664 150.331 41.6189 150.331 42.2652V46.4668H149.168V42.3299C149.168 41.8128 149.103 41.4896 149.038 41.231C148.909 40.9725 148.78 40.8432 148.521 40.7139C148.327 40.5846 148.069 40.52 147.746 40.52C147.228 40.52 146.776 40.7139 146.453 41.0371C146.13 41.3603 145.936 41.9421 145.936 42.7824V46.5314H144.772V46.4022ZM156.472 45.5618C156.084 45.885 155.696 46.1436 155.244 46.3375C154.856 46.5314 154.403 46.5961 153.951 46.5961C153.24 46.5961 152.658 46.4022 152.27 46.079C151.818 45.7558 151.624 45.2386 151.624 44.6569C151.624 44.2691 151.753 43.9459 151.947 43.6227C152.141 43.2995 152.4 43.1056 152.787 42.9116C153.111 42.7177 153.628 42.5884 154.339 42.5238C155.244 42.3945 155.955 42.2652 156.407 42.136V41.8128C156.407 41.3603 156.278 41.0371 156.084 40.8432C155.825 40.5846 155.373 40.4554 154.791 40.4554C154.274 40.4554 153.886 40.52 153.563 40.7139C153.305 40.9078 153.111 41.231 152.981 41.7481L151.818 41.5542C152.012 40.8432 152.335 40.3261 152.787 40.0029C153.305 39.6797 153.951 39.4858 154.921 39.4858C155.632 39.4858 156.213 39.615 156.601 39.809C156.989 40.0029 157.248 40.3261 157.377 40.6493C157.506 40.9725 157.506 41.4249 157.506 42.0713V43.6227C157.506 44.7215 157.506 45.3679 157.571 45.6911C157.635 45.9497 157.7 46.2729 157.894 46.5314H156.73C156.601 46.2082 156.472 45.885 156.472 45.5618ZM156.343 42.9763C155.955 43.1702 155.308 43.2995 154.468 43.4288C154.016 43.4934 153.628 43.558 153.434 43.6873C153.24 43.7519 153.111 43.8812 152.981 44.0751C152.852 44.2044 152.852 44.3983 152.852 44.6569C152.852 44.9801 152.981 45.2386 153.24 45.4326C153.498 45.6265 153.822 45.7558 154.274 45.7558C154.662 45.7558 155.05 45.6911 155.373 45.4972C155.696 45.3033 155.955 45.1094 156.149 44.7862C156.343 44.463 156.407 44.0751 156.407 43.4934V42.9763H156.343ZM159.251 46.4022V37.0295H160.415V46.4668H159.251V46.4022ZM166.232 46.4022V37.0295H167.461V46.4668H166.232V46.4022ZM169.464 46.4022V39.615H170.499V40.5846C170.757 40.1968 171.08 39.9382 171.404 39.7443C171.791 39.5504 172.179 39.4858 172.632 39.4858C173.019 39.4858 173.343 39.5504 173.666 39.6797C173.989 39.809 174.248 39.9382 174.442 40.1322C174.635 40.3261 174.765 40.5846 174.894 40.8432C174.959 41.1664 175.023 41.6189 175.023 42.2652V46.4668H173.86V42.3299C173.86 41.8128 173.795 41.4896 173.731 41.231C173.601 40.9725 173.472 40.8432 173.213 40.7139C173.019 40.5846 172.761 40.52 172.438 40.52C171.921 40.52 171.468 40.7139 171.145 41.0371C170.822 41.3603 170.628 41.9421 170.628 42.7824V46.5314H169.464V46.4022ZM176.316 44.3983L177.48 44.2044C177.544 44.6569 177.738 45.0447 178.061 45.3033C178.385 45.5618 178.772 45.6265 179.225 45.6265C179.742 45.6265 180.13 45.4972 180.388 45.3033C180.647 45.1094 180.776 44.8508 180.776 44.5276C180.776 44.2691 180.647 44.0751 180.453 43.8812C180.324 43.7519 179.936 43.6227 179.289 43.4934C178.385 43.2995 177.803 43.1056 177.48 42.9116C177.156 42.7824 176.962 42.5238 176.769 42.2652C176.575 42.0067 176.51 41.6835 176.51 41.3603C176.51 40.7785 176.704 40.3261 177.156 39.9382C177.609 39.5504 178.255 39.4211 179.031 39.4211C179.548 39.4211 180 39.4858 180.388 39.615C180.776 39.7443 181.035 39.9382 181.293 40.1968C181.487 40.4554 181.616 40.8432 181.681 41.2957L180.582 41.4896C180.453 40.7139 180 40.3261 179.096 40.3261C178.578 40.3261 178.191 40.3907 177.997 40.5846C177.738 40.7785 177.609 40.9725 177.609 41.231C177.609 41.4896 177.738 41.6835 177.932 41.8128C178.061 41.8774 178.514 42.0067 179.16 42.2006C180.13 42.4592 180.712 42.6531 181.035 42.7824C181.293 42.9116 181.552 43.1056 181.681 43.3641C181.81 43.6227 181.94 43.9459 181.94 44.2691C181.94 44.9154 181.681 45.4326 181.164 45.885C180.647 46.2729 180 46.4668 179.096 46.4668C177.48 46.5961 176.575 45.8204 176.316 44.3983ZM185.883 45.3679L186.012 46.4022C185.689 46.4668 185.43 46.5314 185.172 46.5314C184.784 46.5314 184.461 46.4668 184.202 46.3375C183.943 46.2082 183.814 46.0143 183.685 45.8204C183.62 45.6265 183.556 45.1094 183.556 44.463V40.52H182.715V39.615H183.556V37.9344L184.719 37.2234V39.615H185.883V40.52H184.719V44.5276C184.719 44.9155 184.784 45.1094 184.848 45.2386C184.978 45.3679 185.107 45.4972 185.43 45.4972C185.495 45.4326 185.624 45.4326 185.883 45.3679ZM186.917 38.3223V36.9648H188.08V38.3223H186.917ZM186.917 46.4022V39.615H188.08V46.4668H186.917V46.4022ZM192.411 45.3679L192.54 46.4022C192.217 46.4668 191.959 46.5314 191.7 46.5314C191.312 46.5314 190.989 46.4668 190.731 46.3375C190.472 46.2082 190.343 46.0143 190.213 45.8204C190.149 45.6265 190.084 45.1094 190.084 44.463V40.52H189.244V39.615H190.084V37.9344L191.248 37.2234V39.615H192.411V40.52H191.248V44.5276C191.248 44.9155 191.312 45.1094 191.377 45.2386C191.506 45.3679 191.636 45.4972 191.959 45.4972C192.023 45.4326 192.217 45.4326 192.411 45.3679ZM197.906 46.4022V45.4326C197.647 45.8204 197.324 46.079 197.001 46.2729C196.613 46.4668 196.225 46.5314 195.772 46.5314C195.255 46.5314 194.803 46.4021 194.415 46.1436C194.027 45.885 193.769 45.6265 193.639 45.2386C193.51 44.8508 193.445 44.3983 193.445 43.7519V39.5504H194.609V43.3641C194.609 44.0751 194.674 44.5276 194.738 44.7862C194.803 45.0447 194.997 45.2386 195.191 45.3679C195.449 45.4972 195.708 45.5618 195.966 45.5618C196.483 45.5618 196.936 45.3679 197.324 44.9801C197.647 44.6569 197.776 44.0751 197.776 43.2348V39.5504H198.94V46.4022H197.906ZM203.271 45.3679L203.4 46.4022C203.077 46.4668 202.818 46.5314 202.56 46.5314C202.172 46.5314 201.849 46.4668 201.59 46.3375C201.331 46.2082 201.202 46.0143 201.073 45.8204C201.008 45.6265 200.944 45.1094 200.944 44.463V40.52H200.103V39.615H200.944V37.9344L202.107 37.2234V39.615H203.271V40.52H202.107V44.5276C202.107 44.9155 202.172 45.1094 202.236 45.2386C202.366 45.3679 202.495 45.4972 202.818 45.4972C202.947 45.4326 203.077 45.4326 203.271 45.3679ZM204.369 38.3223V36.9648H205.533V38.3223H204.369ZM204.369 46.4022V39.615H205.533V46.4668H204.369V46.4022ZM206.826 43.0409C206.826 41.8774 207.149 40.9725 207.731 40.3907C208.312 39.809 209.088 39.4858 209.993 39.4858C210.898 39.4858 211.674 39.809 212.255 40.3907C212.837 40.9725 213.16 41.8774 213.16 42.9763C213.16 44.2044 212.837 45.1094 212.255 45.6911C211.674 46.2729 210.898 46.5961 209.993 46.5961C209.088 46.5961 208.312 46.2729 207.731 45.6911C207.149 45.0447 206.826 44.2044 206.826 43.0409ZM208.054 43.0409C208.054 43.9459 208.248 44.5923 208.636 45.0447C209.023 45.4972 209.476 45.6911 210.058 45.6911C210.575 45.6911 211.027 45.4972 211.415 45.0447C211.803 44.5923 211.997 43.9459 211.997 43.1056C211.997 42.2006 211.803 41.5542 211.415 41.1664C211.027 40.7139 210.575 40.52 209.993 40.52C209.476 40.52 208.959 40.7139 208.636 41.1664C208.248 41.4896 208.054 42.136 208.054 43.0409ZM214.518 46.4022V39.615H215.552V40.5846C215.811 40.1968 216.134 39.9382 216.457 39.7443C216.845 39.5504 217.233 39.4858 217.685 39.4858C218.073 39.4858 218.396 39.5504 218.719 39.6797C219.043 39.809 219.301 39.9382 219.495 40.1322C219.689 40.3261 219.818 40.5846 219.947 40.8432C220.012 41.1664 220.077 41.6189 220.077 42.2652V46.4668H218.913V42.3299C218.913 41.8128 218.849 41.4896 218.784 41.231C218.655 40.9725 218.525 40.8432 218.267 40.7139C218.073 40.5846 217.814 40.52 217.491 40.52C216.974 40.52 216.522 40.7139 216.198 41.0371C215.875 41.3603 215.681 41.9421 215.681 42.7824V46.5314H214.518V46.4022ZM221.37 44.3983L222.533 44.2044C222.598 44.6569 222.792 45.0447 223.115 45.3033C223.438 45.5618 223.826 45.6265 224.278 45.6265C224.731 45.6265 225.183 45.4972 225.442 45.3033C225.7 45.1094 225.83 44.8508 225.83 44.5276C225.83 44.2691 225.7 44.0751 225.506 43.8812C225.377 43.7519 224.989 43.6227 224.343 43.4934C223.438 43.2995 222.856 43.1056 222.533 42.9116C222.21 42.7824 222.016 42.5238 221.822 42.2652C221.628 42.0067 221.563 41.6835 221.563 41.3603C221.563 40.7785 221.757 40.3261 222.21 39.9382C222.662 39.5504 223.309 39.4211 224.084 39.4211C224.601 39.4211 225.054 39.4858 225.442 39.615C225.83 39.7443 226.088 39.9382 226.347 40.1968C226.541 40.4554 226.67 40.8432 226.735 41.2957L225.636 41.4896C225.506 40.7139 225.054 40.3261 224.149 40.3261C223.632 40.3261 223.244 40.3907 223.05 40.5846C222.792 40.7785 222.662 40.9725 222.662 41.231C222.662 41.4896 222.792 41.6835 222.985 41.8128C223.115 41.8774 223.567 42.0067 224.214 42.2006C225.183 42.4592 225.765 42.6531 226.088 42.7824C226.347 42.9116 226.605 43.1056 226.735 43.3641C226.864 43.6227 226.993 43.9459 226.993 44.2691C226.993 44.9154 226.735 45.4326 226.217 45.885C225.7 46.2729 225.054 46.4668 224.149 46.4668C222.598 46.5961 221.628 45.8204 221.37 44.3983Z" fill="#D8EBFF"/>
<path d="M79.0044 33.8159V28.8239H79.5797V30.6667H79.6284C79.6707 30.6017 79.7292 30.5188 79.8039 30.418C79.8803 30.3157 79.9892 30.2247 80.1305 30.145C80.2735 30.0638 80.4669 30.0231 80.7107 30.0231C81.0259 30.0231 81.3038 30.102 81.5443 30.2596C81.7848 30.4172 81.9725 30.6407 82.1074 30.9299C82.2422 31.2192 82.3097 31.5604 82.3097 31.9537C82.3097 32.3502 82.2422 32.6939 82.1074 32.9847C81.9725 33.274 81.7856 33.4982 81.5467 33.6575C81.3079 33.8151 81.0324 33.8939 80.7204 33.8939C80.4799 33.8939 80.2873 33.8541 80.1427 33.7745C79.9981 33.6932 79.8868 33.6014 79.8088 33.499C79.7308 33.395 79.6707 33.3089 79.6284 33.2407H79.5602V33.8159H79.0044ZM79.5699 31.9439C79.5699 32.2267 79.6113 32.4761 79.6942 32.6922C79.7771 32.9067 79.8982 33.0749 80.0574 33.1968C80.2167 33.317 80.4117 33.3772 80.6424 33.3772C80.8829 33.3772 81.0836 33.3138 81.2445 33.187C81.407 33.0587 81.5289 32.8864 81.6101 32.6703C81.693 32.4525 81.7344 32.2104 81.7344 31.9439C81.7344 31.6807 81.6938 31.4434 81.6125 31.2322C81.5329 31.0193 81.4119 30.8511 81.2494 30.7276C81.0885 30.6025 80.8862 30.5399 80.6424 30.5399C80.4084 30.5399 80.2118 30.5992 80.0525 30.7178C79.8933 30.8348 79.773 30.999 79.6918 31.2102C79.6105 31.4198 79.5699 31.6644 79.5699 31.9439ZM83.4261 35.2199C83.3286 35.2199 83.2416 35.2118 83.1652 35.1955C83.0889 35.1809 83.036 35.1663 83.0068 35.1517L83.1531 34.6447C83.2928 34.6804 83.4163 34.6934 83.5236 34.6837C83.6308 34.6739 83.7259 34.626 83.8087 34.5399C83.8932 34.4554 83.9704 34.318 84.0403 34.1279L84.1476 33.8354L82.763 30.0719H83.3871L84.4206 33.0554H84.4596L85.4931 30.0719H86.1171L84.5278 34.3619C84.4563 34.5553 84.3677 34.7154 84.2621 34.8421C84.1565 34.9705 84.0338 35.0655 83.8941 35.1273C83.7559 35.189 83.5999 35.2199 83.4261 35.2199Z" fill="#E7E7E7"/>
<path d="M82.8459 13.5H82.5873V24.4886H82.8459V13.5Z" fill="#F2F2F2"/>
<path d="M82.8459 39.4204H82.5873V50.4091H82.8459V39.4204Z" fill="#F2F2F2"/>
<defs>
<linearGradient id="paint0_linear_0_3419" x1="52.642" y1="42.2689" x2="67.8518" y2="29.1677" gradientUnits="userSpaceOnUse">
<stop offset="0.22" stop-color="white"/>
<stop offset="0.58" stop-color="white"/>
<stop offset="0.99" stop-color="white"/>
</linearGradient>
<linearGradient id="paint1_linear_0_3419" x1="45.4742" y1="40.8517" x2="57.8223" y2="30.2146" gradientUnits="userSpaceOnUse">
<stop offset="0.22" stop-color="white"/>
<stop offset="0.58" stop-color="white"/>
<stop offset="0.99" stop-color="white"/>
</linearGradient>
<linearGradient id="paint2_linear_0_3419" x1="71.2197" y1="28.5288" x2="52.4222" y2="15.0844" gradientUnits="userSpaceOnUse">
<stop offset="0.22" stop-color="white"/>
<stop offset="0.58" stop-color="white"/>
<stop offset="0.99" stop-color="white"/>
</linearGradient>
</defs>
</svg>
