<svg width="80" height="57" viewBox="0 0 80 57" fill="none" xmlns="http://www.w3.org/2000/svg">
<g id="Physics_Icon_InLn (3)" clip-path="url(#clip0_162_101)">
<g id="Layer 2">
<g id="Layer 3">
<path id="Vector" d="M60.7178 39.3369C68.4363 39.3369 74.6933 33.0969 74.6933 25.3996C74.6933 17.7023 68.4363 11.4624 60.7178 11.4624C52.9993 11.4624 46.7422 17.7023 46.7422 25.3996C46.7422 33.0969 52.9993 39.3369 60.7178 39.3369Z" fill="#FFAD7A"/>
<path id="Vector_2" d="M60.6991 55.7703H64.7185C65.452 55.7703 66.1554 55.4797 66.6741 54.9625C67.1927 54.4452 67.4841 53.7437 67.4841 53.0122V51.1736C67.4841 50.4421 67.1927 49.7406 66.6741 49.2233C66.1554 48.7061 65.452 48.4155 64.7185 48.4155H3.87499C3.1541 48.4153 2.46161 48.6957 1.94502 49.1972C1.42844 49.6986 1.1286 50.3814 1.10938 51.1V52.9387C1.10938 53.6702 1.40075 54.3717 1.9194 54.8889C2.43806 55.4061 3.1415 55.6967 3.87499 55.6967H55.9054" stroke="#080E14" stroke-width="2.13333" stroke-linecap="round" stroke-linejoin="round"/>
<path id="Vector_3" d="M4.90625 22.0484V3.84543C4.90625 3.11395 5.19763 2.41244 5.71628 1.89521C6.23493 1.37798 6.93838 1.0874 7.67186 1.0874H61.4538C62.1873 1.0874 62.8908 1.37798 63.4094 1.89521C63.9281 2.41244 64.2195 3.11395 64.2195 3.84543L64.7173 48.3232" stroke="#080E14" stroke-width="2.13333" stroke-linecap="round" stroke-linejoin="round"/>
<path id="Vector_4" d="M17.2612 39.3057C20.3568 39.3057 22.8662 36.8031 22.8662 33.7161C22.8662 30.629 20.3568 28.1265 17.2612 28.1265C14.1657 28.1265 11.6562 30.629 11.6562 33.7161C11.6562 36.8031 14.1657 39.3057 17.2612 39.3057Z" stroke="#080E14" stroke-width="2.13333" stroke-linecap="round" stroke-linejoin="round"/>
<path id="Vector_5" d="M29.4331 39.3057C32.5286 39.3057 35.0381 36.8031 35.0381 33.7161C35.0381 30.629 32.5286 28.1265 29.4331 28.1265C26.3376 28.1265 23.8281 30.629 23.8281 33.7161C23.8281 36.8031 26.3376 39.3057 29.4331 39.3057Z" stroke="#080E14" stroke-width="2.13333" stroke-linecap="round" stroke-linejoin="round"/>
<path id="Vector_6" d="M40.6597 39.3057C43.7552 39.3057 46.2646 36.8031 46.2646 33.7161C46.2646 30.629 43.7552 28.1265 40.6597 28.1265C37.5641 28.1265 35.0547 30.629 35.0547 33.7161C35.0547 36.8031 37.5641 39.3057 40.6597 39.3057Z" stroke="#080E14" stroke-width="2.13333" stroke-linecap="round" stroke-linejoin="round"/>
<path id="Vector_7" d="M17.2656 28.1344V1.0874" stroke="#080E14" stroke-width="2.13333" stroke-linecap="round" stroke-linejoin="round"/>
<path id="Vector_8" d="M29.4297 28.1344V1.0874" stroke="#080E14" stroke-width="2.13333" stroke-linecap="round" stroke-linejoin="round"/>
<path id="Vector_9" d="M40.6562 28.1344V1.0874" stroke="#080E14" stroke-width="2.13333" stroke-linecap="round" stroke-linejoin="round"/>
<path id="Vector_10" d="M73.2769 31.7354C76.3724 31.7354 78.8818 29.2328 78.8818 26.1458C78.8818 23.0587 76.3724 20.5562 73.2769 20.5562C70.1813 20.5562 67.6719 23.0587 67.6719 26.1458C67.6719 29.2328 70.1813 31.7354 73.2769 31.7354Z" stroke="#080E14" stroke-width="2.13333" stroke-linecap="round" stroke-linejoin="round"/>
<path id="Vector_11" d="M51.8672 1.0874L69.6409 21.9013" stroke="#080E14" stroke-width="2.13333" stroke-linecap="round" stroke-linejoin="round"/>
<path id="Vector_12" d="M4.90625 40.4312V48.3191" stroke="#080E14" stroke-width="2.13333" stroke-linecap="round" stroke-linejoin="round"/>
</g>
</g>
</g>
<defs>
<clipPath id="clip0_162_101">
<rect width="80" height="56.8889" fill="white" transform="translate(0 0.00146484)"/>
</clipPath>
</defs>
</svg>
