<svg width="12" height="16" viewBox="0 0 12 16" fill="none" xmlns="http://www.w3.org/2000/svg">
<path id="workspace_premium" d="M4.40156 8.75459L5.00313 6.85459L3.42188 5.62126H5.38125L6 3.75459L6.61875 5.62126H8.57812L6.97969 6.85459L7.58125 8.75459L6 7.57126L4.40156 8.75459ZM1.875 14.9546V9.80459C1.43958 9.33792 1.10156 8.80459 0.860938 8.20459C0.620313 7.60459 0.5 6.9657 0.5 6.28792C0.5 4.79903 1.03281 3.53792 2.09844 2.50459C3.16406 1.47126 4.46458 0.95459 6 0.95459C7.53542 0.95459 8.83594 1.47126 9.90156 2.50459C10.9672 3.53792 11.5 4.79903 11.5 6.28792C11.5 6.9657 11.3797 7.60459 11.1391 8.20459C10.8984 8.80459 10.5604 9.33792 10.125 9.80459V14.9546L6 13.6213L1.875 14.9546ZM6 10.2879C7.14583 10.2879 8.11979 9.89903 8.92188 9.12126C9.72396 8.34348 10.125 7.39903 10.125 6.28792C10.125 5.17681 9.72396 4.23237 8.92188 3.45459C8.11979 2.67681 7.14583 2.28792 6 2.28792C4.85417 2.28792 3.88021 2.67681 3.07812 3.45459C2.27604 4.23237 1.875 5.17681 1.875 6.28792C1.875 7.39903 2.27604 8.34348 3.07812 9.12126C3.88021 9.89903 4.85417 10.2879 6 10.2879ZM3.25 12.9713L6 12.2879L8.75 12.9713V10.9046C8.34896 11.1268 7.91641 11.3018 7.45234 11.4296C6.98828 11.5574 6.50417 11.6213 6 11.6213C5.49583 11.6213 5.01172 11.5574 4.54766 11.4296C4.08359 11.3018 3.65104 11.1268 3.25 10.9046V12.9713Z" fill="#169C38" stroke="#D6F4DE" stroke-width="0.2"/>
</svg>
